<?xml version="1.0" encoding="UTF-8"?>
<svg width="342px" height="208px" viewBox="0 0 342 208" version="1.1" xmlns="http://www.w3.org/2000/svg" xmlns:xlink="http://www.w3.org/1999/xlink">
    <!-- Generator: Sketch 53.2 (72643) - https://sketchapp.com -->
    <title>Group 31@1.5x</title>
    <desc>Created with Sketch.</desc>
    <g id="Page-1" stroke="none" stroke-width="1" fill="none" fill-rule="evenodd">
        <g id="Group-31">
            <path d="M310.583997,208 L36.6832949,208 C27.8889266,208 20.6929035,203.978779 20.6929035,199.060872 L20.6929035,195.486453 C20.6929035,193.286337 22.1389703,191.264942 24.521453,189.702674 L15.9900059,189.702674 C7.19563759,189.702674 0,185.679913 0,180.763855 C0,175.847488 7.19563759,171.825651 15.9900059,171.825651 L40.4736785,171.825651 C35.4315277,170.317 31.9803974,167.342837 31.9803974,163.938512 C31.9803974,159.022453 39.1756494,155 47.9704033,155 L326.009994,155 C334.80629,155 342,159.022453 342,163.938512 C342,168.85457 334.80629,172.877023 326.009994,172.877023 L293.089326,172.756233 C296.498049,173.29332 297.874338,174.721855 298.73288,176.52293 C300.057895,179.301116 299.937229,182.65768 297.227829,184.863035 C295.720466,186.089738 293.491032,186.715262 292.066169,186.745151 L310.583997,186.547634 C319.37875,186.547634 326.574388,190.568547 326.574388,195.486453 L326.574388,199.060872 C326.574388,203.978779 319.37875,208 310.583997,208" id="Fill-3" fill="#DBFFFC"></path>
            <path d="M188,144 L171.881881,140.273511 C171.573377,140.202282 171.278615,140.110184 171,140 C171.278615,140.110184 171.573377,140.202282 171.881881,140.273511 L188,144" id="Fill-34" fill="#474F60"></path>
            <path d="M188,144 L171.881881,140.274807 C171.573377,140.203602 171.278615,140.111536 171,140.001391 L171.000344,140 L188,144" id="Fill-35" fill="#474F60"></path>
            <path d="M171,140 C168.753229,138.928752 167.526083,136.435022 168.171476,134 C167.526083,136.434685 168.753575,138.928752 171,140" id="Fill-29" fill="#D9E9F5"></path>
            <path d="M171.000073,140 L171.000073,140 C171.000073,140 170.999743,140 171.000073,140" id="Fill-31" fill="#4F586B"></path>
            <g id="Group-11" transform="translate(111.000000, 53.000000) scale(-1, 1) translate(-111.000000, -53.000000) translate(79.000000, 37.000000)">
                <path d="M3.27207887,4.81442352 C3.40539979,4.79654143 3.54351068,4.77865933 3.67204163,4.79852833 C4.87192989,4.98092572 5.38765032,5.79158081 6.48774748,6.2930743 C6.65619487,6.36976863 6.90407597,6.3328123 7.16393201,6.29585596 C7.66248838,6.22512233 8.20495283,6.1543887 8.31232806,6.88397828 C8.37260189,7.29407438 8.37779103,8.31931464 8.49793952,9.1939479 C8.6731727,10.4695375 9.66948711,11.9807735 10.6833647,13.0354198 C14.665429,17.1792979 19.6701526,20.1286519 24.7127968,22.892032 C25.0001952,23.0493945 25.3027618,23.2095386 25.630875,23.2174862 C26.2180458,23.2313945 26.6922532,22.7692416 27.0998,22.3480188 C28.9910411,20.3948964 31.0643011,18.6174159 33.285252,17.0457782 C35.2667042,15.643027 37.4265829,14.3809483 39.8219686,13.9660837 C42.2169551,13.5508216 44.8977434,14.1174854 46.5323217,15.9084768 C47.756559,17.2500315 48.2694853,19.2011671 47.8627368,20.9679183 C46.8540483,25.3490322 40.3564498,26.4779886 36.7376251,27.8429887 C33.3139918,29.1344736 29.7989499,30.1875304 26.2276258,30.9898405 C25.7865491,31.0887881 25.3303041,31.1845567 24.885635,31.1030938 C24.4118268,31.0160676 23.99949,30.7375043 23.6035188,30.4641069 C18.5049916,26.9457048 13.7469517,22.9985298 9.04479478,18.9357173 C7.75269954,17.8186822 7.2146259,16.1679659 6.01034683,15.1459047 C5.24155614,14.4942016 4.16780384,14.5323501 3.30600785,14.07735 C2.45339264,13.6267212 1.44909494,12.8184504 0.82440262,12.0872713 C-0.408217124,10.6447821 0.0436370049,8.74133214 0.274354042,7.03975122 C0.33183372,6.61574682 0.369355176,6.32963326 0.603265528,6.00338432 C0.98406839,5.47367685 1.59119748,5.28770304 2.18714997,5.08186023 C2.54001132,4.95986458 2.90404927,4.86528816 3.27207887,4.81442352" id="Fill-4" fill="#E8B98A"></path>
                <path d="M36.7852766,26.7338279 C34.5235178,23.8804744 32.2617589,21.0271209 30,18.1737674 C30.1453307,18.3567871 42.2665476,7.07575336 43.0110697,6.42900386 C45.8525632,3.96082915 48.8151655,1.42486936 52.4234175,0.37420048 C60.1275336,-1.86948596 66.708712,6.42421903 62.0414518,13.3147727 C56.9743336,20.7954553 48.6372744,26.9619048 40.1191474,29.8379862 C39.9341088,29.9009865 39.7383491,29.9627905 39.5465602,29.9245119 C39.2836943,29.8722775 39.0946849,29.6477892 38.9275149,29.4372567 C38.2135679,28.5361138 37.4992237,27.6349708 36.7852766,26.7338279" id="Fill-5" fill="#639FC9"></path>
            </g>
            <path d="M71.5989683,34.217394 C71.5298771,34.2238084 71.4604084,34.2302228 71.3916947,34.2370145 C69.5949466,34.4105801 67.7838517,35.0471131 66.5220882,36.3367811 C65.8817678,36.991048 65.4056805,37.7864313 64.9771642,38.5953979 C63.8309303,40.7574218 63.0165605,43.0364137 62.1538647,45.3176696 C59.6424193,51.9554224 57.6508567,58.7905117 56.1878605,65.7346454 C55.483357,69.0791793 51.2971113,107.160229 53.7772203,106.999493 C68.9338611,106.017715 84.1207057,105.50381 99.3090605,105.458532 C100.319,85.7184619 101.232665,65.3184653 94.2563435,46.8231626 C93.1716498,43.9480105 91.8713765,41.0928562 89.8284675,38.7961304 C85.4643969,33.8913925 77.7193893,33.6472687 71.5989683,34.217394" id="Fill-90" fill="#7DB7E0"></path>
            <path d="M97.7135811,102.759748 C93.8914764,101.660803 89.7515958,99.965203 85.7600871,100.000544 C85.3360036,100.003927 84.9115377,100.015582 84.4870719,100.025357 C84.1318207,100.051675 83.7700687,100.079496 83.4014335,100.108821 C80.7269162,100.320114 77.7216214,100.602463 74.5840156,100.976924 C74.4299077,100.995346 74.2765647,101.013392 74.1220744,101.032191 C70.1087688,101.890894 67.5030837,102.22663 65.8113387,102.314982 C64.1842196,102.741702 62.597635,103.280459 61.1127693,103.987649 C60.3712924,104.340303 59.6841166,104.736194 59.0210321,105.152763 L59,109.439888 L66.6507104,182.258598 L72.9240099,182.258598 L72.9240099,183 L72.9603381,183 L79.8577172,134.156179 L79.8863973,133.881349 L83.6652907,183 L83.7012364,183 L83.7012364,182.258598 L90.0047457,182.258598 L98,127.561383 L97.7135811,102.759748" id="Fill-93" fill="#BABCBE"></path>
            <polyline id="Fill-91" fill="#191718" points="83 182.770284 83 185.5 89.6667919 189 93 185.5 89.6667919 182 89.2366642 182 89.1292261 182.770284 83 182.770284"></polyline>
            <polyline id="Fill-92" fill="#191718" points="66.7936216 182 66.3330829 182 63 185.5 66.3330829 189 73 185.5 73 182.770284 66.8706285 182.770284 66.7936216 182"></polyline>
            <path d="M85.09469,16.0242737 C85.9764175,17.5681472 86.3426155,19.317482 86.327934,21.0467807 C86.3241588,21.5068827 86.3287729,22.0383861 86.7331427,22.327999 C87.1656171,22.6383766 86.7335622,23.2565817 87.0980823,22.8842743 C87.4626023,22.5116026 88.7025578,21.2176341 88.7830962,20.7305744 C88.9722775,19.5892446 89.0381344,18.4318858 88.9789891,17.2799915 C88.9273942,16.2778216 88.7575085,15.2257435 88.062865,14.4319492 C87.6513642,13.9612827 87.0850787,13.6177544 86.5276021,13.2844264 C85.7188625,12.8010096 84.8845352,12.3128571 83.9352729,12.1117674 C82.2984981,11.7645962 81.2544354,12.24182 82.6533703,13.3263201 C83.6554859,14.1026284 84.4906522,14.966367 85.09469,16.0242737" id="Fill-94" fill="#363636"></path>
            <path d="M75.3054635,36.0872317 C77.2328042,36.3914878 79.1601449,36.6957439 81.0871283,37 C81.4680228,35.2034039 81.7285032,33.3717745 81.8649964,31.5271981 C83.5665159,31.3078595 85.5781822,30.8272948 86.2459983,28.9450196 C86.4560977,28.3517392 86.4936155,27.6960083 86.528632,27.0547476 C86.6726288,24.4028834 86.8162682,21.7510192 86.9602649,19.099155 C87.0102886,18.1818172 87.0570964,17.2366812 86.8076927,16.3688468 C86.3699855,14.8464239 85.119751,13.8837713 83.8788066,13.2527921 C80.712308,11.6420245 76.9390938,11.4885637 73.8569208,13.3559879 C73.0368899,13.8529268 72.2536621,14.5075154 71.7512815,15.427138 C70.9762718,16.8444612 70.9794877,18.649054 71.0091445,20.3363616 C71.0366576,21.8941986 71.0641706,23.4524163 71.0913263,25.0102532 C71.1231271,26.801899 71.2728408,28.8703836 72.5069963,29.8844436 C73.1623064,30.4232701 74.0355768,30.5641647 74.590125,31.2446474 C75.5680878,32.444536 75.0003191,34.4509507 75.3054635,36.0872317" id="Fill-95" fill="#E8B98A"></path>
            <path d="M80.5498107,28.8213653 C79.6162507,29.4175496 78.620331,29.3975872 77.6302805,29.0206052 C77.2095365,28.8601384 77.4277952,28.1065583 77.8492728,28.2674091 C78.6698519,28.5798972 79.4566834,28.615983 80.2336108,28.1196106 C80.6246423,27.8700808 80.9382744,28.573371 80.5498107,28.8213653 Z M86.9996286,25.3989678 C86.9952267,24.9014437 86.8620706,23.4372795 86.1170567,24.3121695 C85.9222746,24.5409691 85.8610155,24.8761069 85.8342375,25.1932017 C85.8074596,25.5106804 85.8052586,25.8389081 85.6966796,26.1333533 C85.4472411,26.8082354 84.7172668,27.0819505 84.0815656,27.0351156 C83.828459,27.0163049 83.5727846,26.9579533 83.3552596,26.8101549 C83.1443374,26.6661954 82.9818356,26.4477608 82.8237356,26.2327813 C82.4393069,25.7118398 82.0548783,25.1901305 81.6704496,24.6688052 C81.0094377,23.7728012 79.5986433,24.0672463 78.6460085,24.1470959 C77.5481125,24.2384622 76.4399456,24.5290685 75.5118878,25.2438754 C75.4183484,25.3160471 75.3266431,25.3920577 75.234571,25.4680684 C75.0104432,25.6534882 74.7848481,25.8369886 74.5288069,25.952924 C73.6653097,26.3429583 72.6444462,25.8300786 72.0934807,24.9816772 C71.8411077,24.5927945 71.6122112,24.0971899 71.1951355,24.011582 C70.8686646,23.9444009 70.5363245,24.1778072 70.3518134,24.4960537 C70.1673024,24.8139163 70.1031086,25.2020312 70.0620247,25.5801648 C69.9119948,26.9571856 70.0220411,28.3914062 70.5253199,29.6475009 C71.6166131,32.3715988 73.9595003,32.8268947 76.3328338,32.8975308 C77.2711625,32.9251711 78.2094912,32.9528113 79.1474531,32.9804515 C80.8627093,33.0315092 82.6770071,33.0553105 84.1714368,32.0744663 C85.4894256,31.2091737 86.3232102,29.661321 86.7138749,28.0132725 C86.9156265,27.1625678 87.0065982,26.2780806 86.9996286,25.3989678 L86.9996286,25.3989678 Z" id="Fill-96" fill="#191718"></path>
            <path d="M87.3578473,8.17029216 C87.3702869,7.86048761 83.4418381,7.42757945 83.1230271,7.38220591 C80.1389272,6.95636413 77.4107291,6.55767208 74.6182002,8.12045565 C72.2326263,9.45562772 70.6431915,11.5569431 70.1505804,14.3790282 C69.6800053,17.0750345 70.3432176,20.6662382 71.7094492,23 C71.7361056,22.2769987 71.4276017,20.5509448 71.6209498,19.8725733 C71.7524549,19.1897388 72.0083567,18.538145 72.346005,17.9427104 C73.0209461,16.7529567 74.0242946,15.7755662 75.1616362,15.1012857 C76.9746297,14.0264536 79.0463684,13.5187906 81.1006916,13.3283706 C82.9826365,13.1539428 84.7327609,13.4030052 86.5532183,14.0311684 C87.427905,14.3327908 87.4070513,14.555106 87.9902943,13.6312711 C88.0933659,13.4683726 87.3411426,8.54332213 87.3578473,8.17029216 Z" id="Fill-97" fill="#191718"></path>
            <g id="Group-14" transform="translate(117.000000, 0.000000)">
                <polyline id="Fill-6" fill="#C67A6D" points="128.300344 172.106473 128.412114 180.747417 123.736103 180.815287 123.612114 171.235669 128.300344 172.106473"></polyline>
                <g id="Group-12" transform="translate(113.623622, 38.913999) scale(-1, 1) rotate(37.000000) translate(-113.623622, -38.913999) translate(90.123622, 13.913999)">
                    <path d="M16.9373706,46.898948 C18.1756292,46.2325359 19.3989971,45.514231 20.694492,44.9174645 C24.3608729,43.2282191 27.9835123,41.4479338 31.5572913,39.5784294 C33.7457657,38.4336026 35.9863576,37.1968255 37.4582148,35.2417436 C38.2893046,34.1369744 38.8337475,32.8551325 39.3525969,31.5810291 C42.0938902,24.8490835 44.360541,17.9314164 46.1302131,10.8949424 C44.6420692,10.1957559 40.5564207,8.28118674 39.1455225,9.58897494 C38.6690186,10.0309737 38.4047079,10.6436722 38.1520305,11.236342 C36.9486721,14.0603998 35.7215816,16.8735328 34.4693629,19.6761962 C33.0696327,22.8102448 31.6256957,25.9538527 29.6005542,28.7414945 C29.3381048,29.1024677 29.0565767,29.4661721 28.6698826,29.6974135 C28.2566644,29.9445868 27.7620124,30.0174188 27.2822512,30.0852435 C19.9308759,31.1226432 15.5739367,28.448346 8.35518215,30.2136097 C6.7279028,30.5977981 2.22996679,35.4752609 1.21646538,36.7780419 C0.423533142,37.7967785 0.244378853,39.1414378 0.168529115,40.4205485 C0.0680165781,42.1143459 0.117342175,43.8882584 0.913066422,45.3967896 C1.83768869,47.1506733 3.68507189,48.3178048 5.63901698,48.8080547 C7.59296208,49.299215 9.65486509,49.1831391 11.6488291,48.8854386 C13.5809034,48.5972973 15.2728644,47.7952358 16.9373706,46.898948" id="Fill-43" fill="#29ADA3"></path>
                    <polyline id="Fill-42" fill="#E8B98A" points="43.4898661 11.4490252 45.8777125 4.92852102 44.2051769 0.88994959 40.2699743 0.501252111 39.5253557 4.97705043 38.5815429 4.32536976 36.8777125 4.75473951 38.2169332 8.99205043 38.7419911 11.5012521 43.4898661 11.4490252"></polyline>
                </g>
                <path d="M124.824578,179.617834 L129.43721,181.326038 L130.812114,182.984405 L130.579363,186.914741 L118.11107,188 C117.057778,186.281563 117.742988,183.94997 119.500648,183.274075 L120.081099,183.050705 L124.824578,179.617834" id="Fill-7" fill="#2EB9AE"></path>
                <polyline id="Fill-8" fill="#C67A6D" points="165.849538 162.853503 169.212114 171.458969 164.540331 173.630573 160.812114 164.089794 165.849538 162.853503"></polyline>
                <path d="M164.384733,173.802816 C164.549944,173.614674 164.742499,173.436556 164.965862,173.268848 C165.520032,172.852853 169.986905,170.420887 170.370087,171.516968 C170.432475,171.695086 170.412834,171.890939 170.390883,172.078696 C170.023105,175.233157 169.302952,178.343283 168.24891,181.329651 C167.797949,182.607319 167.113996,184.022239 165.828504,184.341078 C165.264706,184.480643 164.672794,184.377319 164.107455,184.245851 C163.27331,184.051926 162.452644,183.795929 161.653929,183.480946 C161.362402,183.366056 161.052005,183.224178 160.900658,182.943508 C160.597577,182.380624 161.125946,181.714031 161.678191,181.410613 C162.230437,181.107581 162.904761,180.889753 163.173952,180.30952 C163.294876,180.048897 163.312206,179.75242 163.327225,179.464424 C163.439677,177.327008 163.086533,175.274795 164.384733,173.802816" id="Fill-9" fill="#2EB9AE"></path>
                <path d="M134.261701,130.574235 C135.947962,138.552406 140.769294,144.283755 145.919345,150.150502 C151.812963,156.864288 157.356527,163.905819 162.518431,171.235669 C164.749922,170.273143 166.981018,169.310617 169.212114,168.34849 C167.346875,157.136679 162.206306,146.850357 158.222968,136.247044 C155.454544,128.878565 153.211991,121.087165 153.090302,113.124127 C153.029852,109.164112 153.957138,105.542594 154.453771,101.691297 C155.068933,96.9200844 155.104491,92.0298009 155.659993,87.2366858 C155.846478,85.6294232 155.952758,83.7282658 154.757994,82.6829079 C154.225802,82.2173752 153.524905,82.0214453 152.841393,81.8844536 C127.470034,76.8018242 131.054722,115.404002 134.261701,130.574235" id="Fill-10" fill="#191718"></path>
                <path d="M153.611884,89.759977 C153.625193,84.9347455 153.059177,80.2837859 152.192147,76.7368139 C145.041791,76.338648 136.961384,77.1619742 129.889707,78.6553943 C122.978127,80.1150715 118.667637,81.681138 118.617924,89.4820945 C118.525937,103.836712 113.135868,116.064734 110.808391,129.862395 C109.455981,137.880894 111.792852,145.052645 114.382199,152.478857 C117.345367,160.976902 119.869344,169.640485 121.937691,178.420382 C124.332886,178.405694 126.727689,178.390609 129.122884,178.375921 C131.485981,167.305875 130.511307,155.807096 130.712113,144.469092 C130.851856,136.589931 131.626898,128.526177 134.40844,121.134105 C137.465945,113.008423 141.869596,116.242182 146.923422,111.530088 C151.837115,106.948599 153.588789,98.094071 153.611884,89.759977" id="Fill-11" fill="#191718"></path>
                <path d="M145.417275,33.0607297 C146.201535,33.6970442 146.890921,34.4650647 147.571753,35.2255477 C148.182208,35.9070865 148.792274,36.5886254 149.40234,37.2697675 C151.51638,39.6305576 152.560375,43.12513 153.466336,46.1412765 C158.234106,62.0114512 159.949601,83.7857831 156.853389,100.369233 C145.110492,101.431608 131.518734,98.3309639 119.801888,96.6552829 C118.662243,96.4918405 117.372122,96.2248582 116.78072,95.191839 C116.422223,94.5662355 116.412114,93.7954381 116.412114,93.0655014 C116.41328,82.5381466 118.537819,71.2233329 120.530546,60.8451391 C121.371574,56.4659151 122.407403,52.1235845 123.736017,47.8772566 C125.142396,43.3821947 126.728024,38.528115 130.019037,35.1275617 C133.541011,31.4889854 140.283622,29.6923095 144.692117,32.5327157 C144.943686,32.6945712 145.184758,32.872295 145.417275,33.0607297" id="Fill-12" fill="#2EB9AE"></path>
                <path d="M144.128433,34.9040639 C144.334187,33.5263544 144.540319,32.1478812 144.746451,30.7697899 C145.023181,30.6327063 145.286698,30.4803487 145.530205,30.3188268 C150.285586,27.167049 158.262061,10.2431404 145.586458,6.45482115 C134.077048,3.01551146 134.675434,19.4514177 136.921744,26.3048351 C137.30607,27.4774919 137.81989,28.5856163 138.580615,29.5463472 C139.10123,30.2038904 139.217887,30.0790259 139.143136,30.8408137 C139.071028,31.5773995 138.363535,32.4117386 138.202706,33.189564 C138.031307,34.0185572 138.095865,34.9372847 138.559473,35.6353038 C138.843754,36.0629742 139.258661,36.3814359 139.701127,36.6246734 C140.40409,37.0114859 141.221067,37.2245574 142.002556,37.0706725 C142.932037,36.8881489 143.980441,35.8911424 144.128433,34.9040639" id="Fill-13" fill="#E8B98A"></path>
                <path d="M133.86048,20.9400654 C134.523747,23.2713377 135.45289,25.4975684 136.614496,27.5414013 C136.551937,23.2281811 136.996603,18.9055967 137.931433,14.7344676 C138.002879,14.4164928 138.072547,14.0557685 137.925746,13.7756576 C137.788543,13.514275 137.509871,13.4161547 137.254304,13.3514197 C132.690698,12.1918907 132.70385,16.8764207 133.86048,20.9400654" id="Fill-14" fill="#191718"></path>
                <path d="M147.612114,26.7336396 C148.401655,27.9353337 150.129759,27.6123759 151.346826,26.9498879 C156.34534,24.2287965 159.287829,17.6774817 158.179176,11.738938 C157.250957,6.76967201 151.467115,3.04332881 150.297168,9.19973767 C149.882668,11.3824314 151.110078,14.4074832 150.828893,16.8294648 C150.427418,20.2898427 148.937977,23.5998573 147.612114,26.7336396" id="Fill-15" fill="#191718"></path>
                <path d="M135.489907,2.62988884 C134.916529,2.87235216 134.332955,3.1278995 133.718397,3.38549123 C132.44575,3.91784746 131.52411,4.09775279 130.211851,3.29962732 C129.836528,3.07147465 127.322608,0.528267472 127.92736,0 C123.916853,3.50079419 127.21554,8.61133222 128.719579,12.2290649 C129.733383,14.667191 129.942026,18.1095159 132.220634,19.7029047 C134.727103,21.4553462 136.446452,19.2392396 138.722315,18.2460804 C140.729921,17.3702686 142.899893,16.8959727 144.942405,16.1162466 C148.331687,14.8225638 153.374823,12.5496235 152.252383,7.7314316 C150.941301,2.10366574 145.613045,0.701221915 140.826399,1.13095033 C138.781143,1.31494442 137.179842,1.91476515 135.489907,2.62988884" id="Fill-16" fill="#191718"></path>
                <path d="M153.612114,178.420382 C153.033798,178.420382 152.446446,178.352214 151.862791,178.208813 L133.212114,173.630573 L151.862791,178.208813 C152.446446,178.352214 153.034209,178.420382 153.612114,178.420382" id="Fill-30" fill="#4F586B"></path>
                <g id="Car" transform="translate(97.949451, 113.825759) scale(-1, 1) rotate(15.000000) translate(-97.949451, -113.825759) translate(13.449451, 53.825759)">
                    <g id="Group-8">
                        <path d="M1.3206382,86.5661007 L6.2114058,73.9277477 L6.47984924,73.8024918 C6.4917423,72.5232612 6.50363536,71.2440306 6.51552843,69.9647999 C6.57839176,63.2117857 6.6409153,56.4587714 6.70377863,49.7057571 C6.75882653,43.7667373 4.93646937,34.5102933 11.4881883,31.3998283 L73.758231,1.83977611 C80.6745572,-1.44354875 88.9752361,-0.268979377 95.0831738,4.85739642 L116.35103,22.7065294 L117.391843,22.2223867 L141.392385,18.8485805 C150.424657,18.9316343 158.620677,24.1184435 162.514466,32.2161861 L168.365854,44.3842387 L10.2611639,119.4375 L1.9366989,102.125516 C-0.41099187,97.2432368 -0.633901864,91.6165127 1.3206382,86.5661007" id="Fill-98" fill="#54DFD4"></path>
                        <path d="M73.5755768,53.0833333 C73.1133085,53.0833333 72.6692478,52.8167437 72.456827,52.3609169 L71.9847807,51.3498102 C71.6897517,50.7175232 71.9514003,49.9595384 72.5687694,49.6573805 L77.8310743,47.0826497 C78.0033712,46.9983908 78.1854462,46.9583333 78.3644867,46.9583333 C78.8267549,46.9583333 79.2704784,47.2245776 79.4832364,47.6807498 L79.9552828,48.6918565 C80.2499745,49.3241435 79.9886632,50.0821282 79.371294,50.3842861 L74.1089891,52.9590169 C73.936355,53.0432758 73.7546172,53.0833333 73.5755768,53.0833333" id="Fill-115" fill="#8CFFF6"></path>
                    </g>
                    <g id="Group-7" transform="translate(105.741969, 46.958333)">
                        <g id="Group-4" transform="translate(5.133105, 0.000000)">
                            <path d="M1.50753803,21.9121159 C5.17322464,29.5408376 14.3642699,32.7708285 22.036266,29.1258184 C29.7086018,25.4808083 32.9565754,16.3416058 29.2908887,8.7128841 C25.6252021,1.08416239 16.4341569,-2.14582846 8.76216073,1.4991816 C1.09016459,5.14385397 -2.15780898,14.2830565 1.50753803,21.9121159" id="Fill-109" fill="#191718"></path>
                            <path d="M22.2657287,20.75063 C25.569595,17.2613764 25.4034182,11.7700258 21.8947135,8.48479254 C18.3860088,5.19955931 12.8631733,5.36479892 9.55964614,8.85371526 C6.25577981,12.3426316 6.42161748,17.8343195 9.93066131,21.1192155 C13.4390269,24.4044487 18.9618623,24.2395463 22.2657287,20.75063" id="Fill-110" fill="#F7F7F7"></path>
                            <path d="M15.0532726,23.4791667 C13.6604771,23.4791667 12.266969,22.8485646 11.2928316,21.7382771 C11.9708797,22.0068376 12.683133,22.127254 13.4007309,22.127254 C14.4336586,22.127254 15.4772754,21.8777067 16.443574,21.4610023 C17.6029899,20.9619077 18.6722606,20.2358439 19.6781091,19.4297665 C20.046172,19.1342708 21.5266185,17.9443659 21.5590422,17.3541667 C21.466403,19.1715048 20.5681586,20.9171477 19.2060052,21.9276162 C18.7004087,22.3031255 18.1406539,22.5788158 17.5759107,22.8287592 C17.0421661,23.0644428 16.4980887,23.280321 15.9326329,23.3932115 C15.6422445,23.450647 15.3479367,23.4791667 15.0532726,23.4791667" id="Fill-111" fill="#B3B3B3"></path>
                        </g>
                        <path d="M2.49485252,25.5208333 C2.01641708,24.8789798 1.59548918,24.1869708 1.23955499,23.4454842 C-2.26125849,16.1478733 1.90684652,6.89759062 10.5496499,2.7851866 C11.1349337,2.50662079 11.7256619,2.25923266 12.3194527,2.04166667 C5.69860047,6.11001526 3.08796273,14.5808559 6.51765743,21.7303728 C6.76061824,22.2366712 7.02705846,22.7226364 7.31629752,23.1896238 L2.49485252,25.5208333" id="Fill-107" fill="#8CFFF6"></path>
                    </g>
                    <g id="Group-10" transform="translate(14.372695, 6.125000)">
                        <g id="Group-9">
                            <path d="M43.1180845,41.435759 L1.6700015,61.25 L0.00649133408,33.5513097 C-0.0765655215,32.172447 0.643147557,30.908235 1.83611521,30.3380337 L31.1317937,16.3333333 L43.1180845,41.435759" id="Fill-99" fill="#CBEAFF"></path>
                            <path d="M37.9849792,12.3452759 L61.7946754,1.3101709 C66.8404163,-1.02797071 72.8958494,-0.191648128 77.3517533,3.45934846 L93.4225164,16.6278016 L50.005075,36.75 L37.9849792,12.3452759" id="Fill-100" fill="#CBEAFF"></path>
                            <path d="M0.443286745,40.8333333 L0.00620138375,33.2640193 C-0.030006871,32.6398292 0.0934891407,32.039517 0.346623636,31.5172286 C0.649221193,31.0104105 1.0824271,30.5954048 1.61455913,30.3310656 L11.2928316,25.5208333 C8.04895997,30.1578663 4.74204713,34.7484887 1.47586858,39.3687062 C1.13124358,39.8563547 0.787588453,40.3450122 0.443286745,40.8333333" id="Fill-102" fill="#AEDEFF"></path>
                            <path d="M1.76811501,61.25 L1.02662106,49.252269 C1.86328561,48.1173622 2.70343626,46.9858463 3.54777023,45.8573821 C9.34829582,38.1039378 15.2816419,29.6082435 20.9333109,21.7520575 L20.9388887,21.7496839 L30.7986318,17.3541667 C26.838071,26.0706032 20.8029307,34.9854026 15.5124219,42.946704 C12.3323994,47.7318262 8.98504396,52.4138676 5.42329326,56.9382359 C4.27497117,58.3969658 3.02241462,59.819753 1.76811501,61.25" id="Fill-104" fill="#AEDEFF"></path>
                            <path d="M50.3044319,37.7708333 L50.3044319,37.7708333 L58.1855463,33.8872882 C58.185216,33.8876288 58.185216,33.8876288 58.185216,33.8876288 L50.3044319,37.7708333 M76.9965794,3.49037129 L76.8720643,3.38170016 C76.7511822,3.27643565 76.6296396,3.17389643 76.5064456,3.07340118 C76.6296396,3.17389643 76.7515125,3.27677631 76.8720643,3.38170016 L76.9965794,3.49037129" id="Fill-105" fill="#5975AB"></path>
                        </g>
                        <path d="M50.4357096,36.75 L50.4357096,36.75 L48.2511898,32.2970847 C49.8672434,29.3238256 51.2984687,26.2529411 53.1095809,23.3842807 C55.333999,19.8611314 57.7524527,16.4412526 60.2244452,13.0791521 C62.7281518,9.67454799 65.2748258,6.24072267 68.0963551,3.07619745 C69.0262936,2.03286709 69.986923,1.0184259 70.9414143,0 C73.2633617,0.42835651 75.5116506,1.40660324 77.475536,2.91813722 C77.4782641,2.92012957 77.4809922,2.92212193 77.4837203,2.92444634 C77.4854253,2.92577458 77.4874714,2.92710282 77.4891764,2.92876311 C77.6163737,3.02672061 77.741866,3.12667046 77.8666762,3.22927679 L77.9952375,3.33520371 L78.0232005,3.35844786 C75.6228204,7.4866092 73.182883,11.595179 70.816604,15.732306 C67.3164618,21.8511629 62.8321603,27.3374468 58.5725854,32.9648559 L50.4357096,36.75" id="Fill-106" fill="#AEDEFF"></path>
                    </g>
                    <g id="Group-6" transform="translate(24.638905, 85.750000)">
                        <path d="M2.58138407,25.5208333 C2.0939398,24.8730804 1.6640677,24.1748178 1.29944404,23.4280931 C-2.29061609,16.07893 1.81340639,6.84316086 10.4663271,2.79931235 C11.0783366,2.51331817 11.6973245,2.26076961 12.3194527,2.04166667 C5.57862544,6.15411282 2.92960838,14.6530545 6.43557828,21.8302115 C6.68435978,22.3397453 6.9586126,22.8305086 7.25484751,23.3004537 L2.58138407,25.5208333" id="Fill-108" fill="#8CFFF6"></path>
                        <g id="Group-3" transform="translate(4.106484, 0.000000)">
                            <path d="M1.50775628,21.9123658 C5.17311755,29.5411081 14.3641986,32.77077 22.0365642,29.1257501 C29.7085902,25.4807302 32.9565764,16.3418407 29.2908755,8.71276068 C25.6255142,1.08401837 16.4344332,-2.14564351 8.7620676,1.4990387 C1.09004161,5.14439629 -2.1579446,14.2832858 1.50775628,21.9123658" id="Fill-112" fill="#191718"></path>
                            <path d="M22.2656067,21.7713128 C25.569473,18.2824324 25.4036353,12.7911382 21.8945915,9.50560159 C18.386226,6.22040216 12.8633905,6.38564007 9.55952416,9.87452052 C6.25565783,13.363401 6.42183464,18.8550323 9.93053933,22.1402317 C13.439244,25.4254312 18.9617404,25.2601933 22.2656067,21.7713128" id="Fill-113" fill="#F7F7F7"></path>
                            <path d="M16.0797632,24.5 C14.6873723,24.5 13.2935563,23.869794 12.3194527,22.7591105 C12.9974772,23.0276709 13.7097058,23.1480874 14.4272788,23.1480874 C15.4605269,23.1480874 16.5041075,22.8985401 17.4703726,22.4822318 C18.6297482,21.9827411 19.6986256,21.2566772 20.7044392,20.4505998 C21.0724893,20.1555002 22.5528844,18.9651992 22.5856633,18.375 C22.492671,20.1927343 21.594814,21.937981 20.2323517,22.9488456 C19.7267727,23.3239588 19.1673936,23.5996492 18.6023137,23.8495926 C18.0689439,24.0860684 17.5245291,24.3015505 16.9594493,24.4140448 C16.6687146,24.4718764 16.3744171,24.5 16.0797632,24.5" id="Fill-114" fill="#B3B3B3"></path>
                        </g>
                    </g>
                </g>
                <polyline id="Fill-36" fill="#DEDEDE" points="152.412114 186.802548 152.412114 186.802548 153.612114 179.617834 152.412114 186.802548"></polyline>
                <g id="Group-13" transform="translate(156.412114, 69.500000) scale(-1, 1) translate(-156.412114, -69.500000) translate(142.412114, 40.000000)">
                    <polyline id="Fill-117" fill="#E8B98A" points="15.1954567 48.9125 11.4387157 50.2598118 12.8607407 56.959991 16.8842374 58.0125 19.4458166 55.4299432 17.1372926 53.2074223 17.8416563 52.9552718 18.7914191 53.4461918 19.2503839 52.4501344 15.1954567 48.9125"></polyline>
                    <path d="M20.3979727,0.17720331 C21.6237409,-0.0743494385 22.8834735,-0.0728653515 24.0871076,0.277379183 C24.7251788,0.462890059 25.3449321,0.748947831 25.8257752,1.19751313 C26.3321869,1.67019484 26.6584732,2.29907671 26.8847748,2.94539661 C29.7976916,11.2703827 20.8276785,20.6846886 15.4590274,26.1082846 C12.0259604,29.5758539 15.0209259,36.1488753 15.8135537,40.4226749 C16.1783839,42.3902032 18.1525118,48.0928076 16.8633944,49.3991752 C16.5905351,49.6759574 12.1202209,51.1121826 12.1541853,51.1875 C10.0762562,46.7029601 7.99832722,42.2184202 5.92001658,37.7338802 C4.38513495,34.421398 2.27972919,31.4172349 0.856281026,28.0320324 C0.316668239,26.7486682 -0.167991054,25.3695803 0.0560207606,24.00051 C0.229658539,22.9390168 0.813157798,21.9888301 1.38520841,21.0694382 C4.24240851,16.4747048 7.31980421,12.1370895 10.6998258,7.89519781 C12.3900273,5.77369543 14.07107,3.58689322 16.2997395,2.00448544 C17.5136775,1.14223089 18.9314013,0.478843995 20.3979727,0.17720331" id="Fill-118" fill="#29ADA3"></path>
                </g>
            </g>
            <g id="Cash" transform="translate(116.498853, 61.291870) rotate(20.000000) translate(-116.498853, -61.291870) translate(73.998853, 15.791870)">
                <polyline id="Fill-3" fill="#FFFFFF" points="84.8606499 33.4097436 27.0351677 88.5833846 -8.52651283e-14 59.8368974 57.8256604 4.6634359 84.8606499 33.4097436"></polyline>
                <path d="M27.1044864,85.7279231 L81.6762683,33.6590513 L57.6512055,7.763 L3.02507338,59.7993846 L27.1044864,85.7279231 Z M82.4581971,33.6831026 L27.080608,86.5207179 L2.24261006,59.7751538 L2.44308176,59.5841795 L57.6754403,6.97038462 L82.4581971,33.6831026 L82.4581971,33.6831026 Z" id="Fill-4" fill="#4E6279"></path>
                <path d="M49.9318868,14.658359 C49.9318868,14.658359 57.3176205,10.1141026 64.7773061,17.4361026 L77.1751887,30.9236667 C77.1751887,30.9236667 79.3700419,33.2575385 77.6098113,36.6699487 L75.6690671,39.4841282 L82.0672327,33.6708974 L57.6633229,7.36669231 L49.9318868,14.658359" id="Fill-5" fill="#4E6279"></path>
                <path d="M10.2363522,52.6618974 C10.2363522,52.6618974 5.33165618,59.8442564 12.1867191,67.7429487 L24.8868239,80.9422564 C24.8868239,80.9422564 27.0816771,83.2761282 30.5599057,81.6901795 L33.4548952,79.890641 L27.3457652,86.0113333 L2.58920335,60.0433077 L10.2363522,52.6618974" id="Fill-6" fill="#4E6279"></path>
                <path d="M28.0678197,58.8150769 C29.5963941,60.4403333 29.6097589,62.9271282 28.0977568,64.3696667 C26.5859329,65.8122051 24.1211111,65.6643077 22.5927149,64.0392308 C21.0643187,62.4139744 21.0509539,59.927 22.5627778,58.4844615 C24.0747799,57.0419231 26.5394235,57.1898205 28.0678197,58.8150769" id="Fill-7" fill="#5A7E6F"></path>
                <polyline id="Fill-8" fill="#5A7E6F" points="28.8568763 72.8868718 28.0683543 73.6389231 25.9212579 71.3558462 26.7096017 70.6036154 28.8568763 72.8868718"></polyline>
                <polyline id="Fill-9" fill="#5A7E6F" points="30.1381132 71.6643846 29.3495912 72.4164359 27.2023166 70.1335385 27.9908386 69.3811282 30.1381132 71.6643846"></polyline>
                <polyline id="Fill-10" fill="#5A7E6F" points="31.4191719 70.4418974 30.6308281 71.1941282 28.4835535 68.9110513 29.2720755 68.1588205 31.4191719 70.4418974"></polyline>
                <polyline id="Fill-11" fill="#5A7E6F" points="32.7004088 69.2195897 31.9118868 69.971641 29.7647904 67.6887436 30.5531342 66.9363333 32.7004088 69.2195897"></polyline>
                <polyline id="Fill-12" fill="#5A7E6F" points="33.9814675 67.9971026 33.1931237 68.7493333 31.0458491 66.4662564 31.8343711 65.7140256 33.9814675 67.9971026"></polyline>
                <polyline id="Fill-13" fill="#5A7E6F" points="35.2627044 66.7747949 34.4743606 67.5268462 32.327086 65.2437692 33.115608 64.4915385 35.2627044 66.7747949"></polyline>
                <polyline id="Fill-14" fill="#5A7E6F" points="36.5437631 65.5523077 35.7554193 66.3045385 33.6083229 64.0214615 34.3966667 63.2692308 36.5437631 65.5523077"></polyline>
                <polyline id="Fill-15" fill="#5A7E6F" points="37.825 64.33 37.0366562 65.0820513 34.8893816 62.7989744 35.6779036 62.0467436 37.825 64.33"></polyline>
                <polyline id="Fill-16" fill="#5A7E6F" points="51.2612369 28.7920769 50.4728931 29.5443077 49.8018029 28.8306667 50.5903249 28.0786154 51.2612369 28.7920769"></polyline>
                <polyline id="Fill-17" fill="#5A7E6F" points="52.5424738 27.5695897 51.7539518 28.3218205 51.0830398 27.608359 51.8713836 26.8561282 52.5424738 27.5695897"></polyline>
                <polyline id="Fill-18" fill="#5A7E6F" points="53.8235325 26.3472821 53.0351887 27.0993333 52.3642767 26.3858718 53.1526205 25.633641 53.8235325 26.3472821"></polyline>
                <polyline id="Fill-19" fill="#5A7E6F" points="55.1047694 25.1247949 54.3164256 25.8770256 53.6453354 25.1635641 54.4336792 24.4113333 55.1047694 25.1247949"></polyline>
                <polyline id="Fill-20" fill="#5A7E6F" points="56.3858281 23.9023077 55.5974843 24.6545385 54.9265723 23.9410769 55.7149161 23.1888462 56.3858281 23.9023077"></polyline>
                <polyline id="Fill-21" fill="#5A7E6F" points="57.667065 22.68 56.8787212 23.4322308 56.207631 22.7187692 56.996153 21.9665385 57.667065 22.68"></polyline>
                <polyline id="Fill-22" fill="#5A7E6F" points="58.9483019 21.4575128 58.1599581 22.2097436 57.4888679 21.4962821 58.2772117 20.7440513 58.9483019 21.4575128"></polyline>
                <polyline id="Fill-23" fill="#5A7E6F" points="60.2293606 20.2350256 59.4410168 20.9874359 58.7699266 20.2739744 59.5584486 19.5217436 60.2293606 20.2350256"></polyline>
                <polyline id="Fill-24" fill="#5A7E6F" points="63.7842138 50.7275641 45.4491614 68.221641 44.113218 66.801 62.4482704 49.3071026 63.7842138 50.7275641"></polyline>
                <path d="M30.6110482,34.0558974 C26.0745073,38.3842308 27.7064361,47.565359 34.2489413,54.5219231 C40.7914465,61.4784872 49.8048323,63.6167179 54.3413732,59.2882051 C58.877914,54.9598718 57.2458071,45.7787436 50.7033019,38.8221795 C44.1607966,31.8656154 35.1475891,29.7273846 30.6110482,34.0558974 Z M54.9139203,59.8970256 C52.5312474,62.1704103 48.9904717,62.9073846 44.9441509,61.9715385 C40.95913,61.0500513 36.9459539,58.6092051 33.6444969,55.0986154 C30.3428616,51.5880256 28.1403459,47.4199744 27.442348,43.3619487 C26.7336583,39.2418205 27.6556499,35.7204615 30.038501,33.4470769 C32.421174,31.1735128 35.9617715,30.4368974 40.0080922,31.3725641 C43.9932914,32.2940513 48.0062893,34.7348974 51.3077463,38.2454872 C54.6093816,41.7560769 56.8118973,45.9241282 57.5098952,49.9821538 C58.2185849,54.1024615 57.2967715,57.6234615 54.9139203,59.8970256 L54.9139203,59.8970256 Z" id="Fill-25" fill="#5A7E6F"></path>
                <path d="M51.0037421,38.5996154 C57.715,45.7354872 59.3365933,55.1639487 54.6259539,59.6584872 C49.9151363,64.1530256 40.6560168,62.0121026 33.9449371,54.8762308 C27.2338574,47.740359 25.6122642,38.3118974 30.3229036,33.817359 C35.033543,29.322641 44.2928407,31.4637436 51.0037421,38.5996154" id="Fill-26" fill="#AEBA8F"></path>
                <polyline id="Fill-27" fill="#FFFFFF" points="82.4314675 27.3199231 33.8025577 90.8601795 2.66778826 66.6859487 51.2966981 3.14551282 82.4314675 27.3199231"></polyline>
                <path d="M33.4315514,88.0287692 L79.3240671,28.0637179 L51.6015933,6.23484615 L5.65045073,66.1762051 L33.4315514,88.0287692 Z M80.1002935,27.9651795 L33.5300943,88.815641 L4.87368973,66.2745641 L51.5037631,5.44797436 L80.1002935,27.9651795 L80.1002935,27.9651795 Z" id="Fill-28" fill="#4E6279"></path>
                <path d="M45.0377044,14.2528974 C45.0377044,14.2528974 51.6343816,8.60964103 60.131174,14.6773846 L74.4562579,26.0647692 C74.4562579,26.0647692 76.9839832,28.0272821 75.770283,31.6735641 L74.2866143,34.7569744 L79.7121803,28.014359 L51.5525891,5.84141026 L45.0377044,14.2528974" id="Fill-29" fill="#4E6279"></path>
                <path d="M11.6751153,57.9982308 C11.6751153,57.9982308 7.93600629,65.8601282 15.9244025,72.5923333 L30.5035954,83.6474872 C30.5035954,83.6474872 33.0313208,85.61 36.2233648,83.4999487 L38.8059748,81.27 L33.7134591,88.2707179 L5.25752621,66.4851026 L11.6751153,57.9982308" id="Fill-30" fill="#5A7E6F"></path>
                <path d="M30.2386164,61.2911026 C31.998847,62.6577179 32.394979,65.1125641 31.123543,66.7738974 C29.8521069,68.4352308 27.3945912,68.6741282 25.6343606,67.3073333 C23.87413,65.9405385 23.4778197,63.4860513 24.7492558,61.8247179 C26.0206918,60.1632051 28.4783857,59.9244872 30.2386164,61.2911026" id="Fill-31" fill="#5A7E6F"></path>
                <polyline id="Fill-32" fill="#5A7E6F" points="33.1851048 75.0692564 32.5220335 75.9354615 30.0493711 74.0154872 30.7122642 73.1491026 33.1851048 75.0692564"></polyline>
                <polyline id="Fill-33" fill="#5A7E6F" points="34.2624843 73.661359 33.599413 74.5275641 31.1265723 72.6077692 31.7896436 71.7413846 34.2624843 73.661359"></polyline>
                <polyline id="Fill-34" fill="#5A7E6F" points="35.3398637 72.2534615 34.6767925 73.1198462 32.20413 71.1998718 32.8672013 70.3336667 35.3398637 72.2534615"></polyline>
                <polyline id="Fill-35" fill="#5A7E6F" points="36.4172432 70.8457436 35.7543501 71.7121282 33.2815094 69.7919744 33.9444025 68.9257692 36.4172432 70.8457436"></polyline>
                <polyline id="Fill-36" fill="#5A7E6F" points="37.4946226 69.4380256 36.8317296 70.3044103 34.3588889 68.3844359 35.0219602 67.5178718 37.4946226 69.4380256"></polyline>
                <polyline id="Fill-37" fill="#5A7E6F" points="38.5721803 68.0301282 37.909109 68.8965128 35.4362683 66.9765385 36.0993396 66.1103333 38.5721803 68.0301282"></polyline>
                <polyline id="Fill-38" fill="#5A7E6F" points="39.6495597 66.6224103 38.9864885 67.4886154 36.5136478 65.5688205 37.1767191 64.7024359 39.6495597 66.6224103"></polyline>
                <polyline id="Fill-39" fill="#5A7E6F" points="40.7269392 65.2145128 40.0638679 66.0810769 37.5910273 64.1609231 38.2540985 63.2945385 40.7269392 65.2145128"></polyline>
                <polyline id="Fill-40" fill="#5A7E6F" points="48.5275157 28.0075385 47.8646226 28.8739231 47.091782 28.2738974 47.7548532 27.4076923 48.5275157 28.0075385"></polyline>
                <polyline id="Fill-41" fill="#5A7E6F" points="49.6050734 26.5998205 48.9420021 27.4662051 48.1693396 26.8661795 48.8322327 25.9997949 49.6050734 26.5998205"></polyline>
                <polyline id="Fill-42" fill="#5A7E6F" points="50.6824528 25.1921026 50.0193816 26.0584872 49.2467191 25.4584615 49.9096122 24.5920769 50.6824528 25.1921026"></polyline>
                <polyline id="Fill-43" fill="#5A7E6F" points="51.7598323 23.7842051 51.096761 24.6505897 50.3240985 24.0505641 50.9871698 23.1841795 51.7598323 23.7842051"></polyline>
                <polyline id="Fill-44" fill="#5A7E6F" points="52.8372117 22.3764872 52.1741405 23.2428718 51.401478 22.6428462 52.0645493 21.7764615 52.8372117 22.3764872"></polyline>
                <polyline id="Fill-45" fill="#5A7E6F" points="53.9145912 20.9687692 53.2516981 21.8349744 52.4788574 21.2351282 53.1419287 20.3687436 53.9145912 20.9687692"></polyline>
                <polyline id="Fill-46" fill="#5A7E6F" points="54.9919706 19.5608718 54.3290776 20.4272564 53.5562369 19.8272308 54.2193082 18.9610256 54.9919706 19.5608718"></polyline>
                <polyline id="Fill-47" fill="#5A7E6F" points="56.0695283 18.1531538 55.406457 19.0195385 54.6336164 18.4195128 55.2966876 17.5531282 56.0695283 18.1531538"></polyline>
                <polyline id="Fill-48" fill="#4E6279" points="64.2771069 47.7211538 48.8582495 67.8682308 47.319696 66.6733846 62.7385535 46.5264872 64.2771069 47.7211538"></polyline>
                <path d="M28.937956,36.4341026 C25.122935,41.419 28.1490776,50.2339744 35.6836059,56.0841795 C43.2181342,61.9343846 52.4519497,62.6383333 56.2669706,57.6534359 C60.0819916,52.6687179 57.0556709,43.8537436 49.5211426,38.0035385 C41.9864361,32.1533333 32.7529769,31.4492051 28.937956,36.4341026 Z M56.9262998,58.1655128 C54.922652,60.7838718 51.5381551,62.0648718 47.3966771,61.7726667 C43.3179245,61.4847692 38.9775786,59.7006667 35.1753878,56.7482821 C31.3730189,53.7960769 28.5553669,50.0225385 27.2408071,46.1228205 C25.9062893,42.1631538 26.2746226,38.5403846 28.2786268,35.9222051 C30.2824528,33.3038462 33.6665933,32.0230256 37.8080713,32.3150513 C41.8870021,32.6029487 46.2271698,34.3870513 50.0293606,37.3394359 C53.8317296,40.291641 56.6495597,44.0651795 57.9639413,47.9648974 C59.2986373,51.9245641 58.9301258,55.5473333 56.9262998,58.1655128 L56.9262998,58.1655128 Z" id="Fill-49" fill="#4E6279"></path>
                <path d="M49.7836268,37.7368205 C57.5123899,43.7377949 60.5663312,52.7986667 56.6050105,57.9748974 C52.6435115,63.1511282 43.1666352,62.4825385 35.4378721,56.4815641 C27.709109,50.4807692 24.6551677,41.4197179 28.6166667,36.2434872 C32.5779874,31.0672564 42.0548637,31.7358462 49.7836268,37.7368205" id="Fill-50" fill="#F3F9FF"></path>
                <polyline id="Fill-51" fill="#FFFFFF" points="77.0390461 21.1294103 34.5354822 88.9802308 1.28872117 67.8508205 43.7922851 2.84217094e-14 77.0390461 21.1294103"></polyline>
                <path d="M33.9027044,86.1960256 L74.0145073,22.1632564 L44.3833648,3.04697436 L4.21079665,67.0616154 L33.9027044,86.1960256 Z M74.7780818,21.9920256 L34.07413,86.9699744 L3.44668763,67.2330256 L44.212652,2.27302564 L74.7780818,21.9920256 L74.7780818,21.9920256 Z" id="Fill-52" fill="#4E6279"></path>
                <path d="M38.5942767,11.6492564 C38.5942767,11.6492564 44.636761,5.40812821 53.6608386,10.647359 L68.9822222,20.6325897 C68.9822222,20.6325897 71.681195,22.3479487 70.8123061,26.0925897 L69.6219497,29.302359 L74.3962055,22.0774615 L44.2980084,2.65982051 L38.5942767,11.6492564" id="Fill-53" fill="#4E6279"></path>
                <path d="M9.44818658,58.3512821 C9.44818658,58.3512821 6.45697065,66.5314103 15.0366247,72.4797949 L30.5802201,82.110359 C30.5802201,82.110359 33.2793711,83.8257179 36.2607862,81.423641 L38.6247484,78.9594615 L34.2058176,86.4103333 L3.84834382,67.4064103 L9.44818658,58.3512821" id="Fill-54" fill="#4E6279"></path>
                <path d="M28.2362159,59.8774615 C30.1160168,61.0719487 30.7388155,63.4785128 29.6274004,65.2523846 C28.5161635,67.0264359 26.0916143,67.4961538 24.2119916,66.3016667 C22.332369,65.1071795 21.709392,62.7007949 22.8208071,60.9267436 C23.932044,59.1526923 26.3565933,58.6829744 28.2362159,59.8774615" id="Fill-55" fill="#4E6279"></path>
                <polyline id="Fill-56" fill="#4E6279" points="32.4516457 73.3167436 31.8721488 74.241641 29.2316247 72.5636154 29.8111216 71.6385385 32.4516457 73.3167436"></polyline>
                <polyline id="Fill-57" fill="#4E6279" points="33.3934172 71.813359 32.8137421 72.7384359 30.173218 71.0604103 30.7527149 70.1351538 33.3934172 71.813359"></polyline>
                <polyline id="Fill-58" fill="#2EB9AE" points="34.3350105 70.3101538 33.7555136 71.2352308 31.1149895 69.5572051 31.6944864 68.6319487 34.3350105 70.3101538"></polyline>
                <polyline id="Fill-59" fill="#4E6279" points="35.276782 68.8067692 34.6972851 69.7318462 32.056761 68.0538205 32.6362579 67.1285641 35.276782 68.8067692"></polyline>
                <polyline id="Fill-60" fill="#2EB9AE" points="36.2183753 67.3035641 35.6388784 68.228641 32.9983543 66.5506154 33.5778512 65.625359 36.2183753 67.3035641"></polyline>
                <polyline id="Fill-61" fill="#2EB9AE" points="37.1601468 65.8001795 36.5806499 66.7252564 33.9401258 65.0472308 34.5196226 64.1219744 37.1601468 65.8001795"></polyline>
                <polyline id="Fill-62" fill="#2EB9AE" points="38.1019182 64.2969744 37.5222432 65.2220513 34.8817191 63.5440256 35.4612159 62.6187692 38.1019182 64.2969744"></polyline>
                <polyline id="Fill-64" fill="#4E6279" points="43.3483962 25.0142308 42.7688994 25.9393077 41.9436688 25.4148462 42.5231656 24.4897692 43.3483962 25.0142308"></polyline>
                <polyline id="Fill-65" fill="#4E6279" points="44.2901677 23.5108462 43.7104927 24.4359231 42.8854403 23.911641 43.4649371 22.9863846 44.2901677 23.5108462"></polyline>
                <polyline id="Fill-66" fill="#4E6279" points="45.231761 22.007641 44.6522642 22.9327179 43.8270335 22.4082564 44.4065304 21.4831795 45.231761 22.007641"></polyline>
                <polyline id="Fill-67" fill="#4E6279" points="46.1733543 20.5042564 45.5938574 21.4295128 44.768805 20.9050513 45.3483019 19.9797949 46.1733543 20.5042564"></polyline>
                <polyline id="Fill-68" fill="#4E6279" points="47.1151258 19.0010513 46.5356289 19.9261282 45.7103983 19.4016667 46.2898952 18.4765897 47.1151258 19.0010513"></polyline>
                <polyline id="Fill-69" fill="#4E6279" points="48.0568973 17.4976667 47.4774004 18.4229231 46.6521698 17.8984615 47.2316667 16.9733846 48.0568973 17.4976667"></polyline>
                <polyline id="Fill-70" fill="#4E6279" points="48.9984906 15.9944615 48.4189937 16.9195385 47.5939413 16.3950769 48.1734382 15.47 48.9984906 15.9944615"></polyline>
                <polyline id="Fill-71" fill="#4E6279" points="49.9402621 14.4912564 49.3607652 15.4163333 48.5355346 14.8918718 49.1150314 13.9667949 49.9402621 14.4912564"></polyline>
                <polyline id="Fill-72" fill="#4E6279" points="60.862673 43.1544615 47.3859853 64.6679744 45.7428302 63.6238974 59.2195178 42.1102051 60.862673 43.1544615"></polyline>
                <path d="M24.6289727,35.2525385 C21.2943711,40.5755897 25.1272117,49.0660513 33.1729874,54.1792821 C41.2187631,59.2926923 50.4771698,59.1221795 53.8117715,53.7991282 C57.146195,48.4762564 53.3131761,39.9856154 45.2674004,34.8723846 C37.2218029,29.7589744 27.9633962,29.9294872 24.6289727,35.2525385 Z M54.5158281,54.2465897 C52.7645073,57.0424615 49.5141929,58.6373846 45.3636268,58.7371795 C41.2761426,58.8357179 36.7887841,57.4689231 32.7287421,54.8886154 C28.668522,52.3083077 25.5121174,48.8172821 23.8404507,45.0588205 C22.1434801,41.2423846 22.173239,37.6009487 23.9247379,34.8050769 C25.6762369,32.0092051 28.9263732,30.4144615 33.076761,30.3144872 C37.1644235,30.2159487 41.6514256,31.5827436 45.7116457,34.1630513 C49.7718658,36.743359 52.9284486,40.2345641 54.5999371,43.9930256 C56.297086,47.8092821 56.2671488,51.4507179 54.5158281,54.2465897 L54.5158281,54.2465897 Z" id="Fill-73" fill="#4E6279"></path>
                <path d="M45.5040461,34.5819744 C53.757065,39.8271282 57.6406918,48.5597179 54.1781447,54.0872051 C50.7155975,59.6145128 41.2184067,59.843359 32.9652096,54.5982051 C24.7121908,49.3532308 20.8287421,40.6204615 24.2912893,35.0931538 C27.7536583,29.5658462 37.2510273,29.3368205 45.5040461,34.5819744" id="Fill-74" fill="#F3F9FF"></path>
            </g>
            <g id="Group-5" transform="translate(86.000000, 64.500000) scale(-1, 1) translate(-86.000000, -64.500000) translate(61.000000, 46.000000)">
                <polyline id="Fill-27" fill="#E8B98A" points="12.9698278 28.460161 9.07516082 29.6413615 5.90533306 28 5.20141108 28.4676863 5.76646607 29.3222311 2.72882341 28.682298 0.48487238 29.7910323 0 32.9795492 1.71550114 35.8734627 5.06661133 36 8.59522723 34.2167718 14 32.8215169 12.9698278 28.460161"></polyline>
                <path d="M10,28.994561 C16.2449872,27.5675337 22.4899744,26.1407986 28.7349617,24.7137713 C30.4161083,24.330055 32.1593418,24.2476422 33.8404884,23.8510671 C36.2984717,23.2715473 36.9718302,23.0693145 37.3170576,20.7854279 C38.3179472,14.1658098 37.0462145,7.29807653 38.0719989,0.777529115 C40.5383804,0.538765793 42.9198798,-0.0311099453 45.4375506,0.00132913517 C49.5487863,0.0542252934 49.1924612,2.81008591 49.4237126,5.88040104 C49.697855,9.52176089 49.8613206,13.1745182 49.8871152,16.8258144 C49.9084107,19.8514162 50.9332953,32.9743393 46.3715542,33.9343608 C43.1025414,34.6325316 10.1583667,36.3415743 10.1724637,37 C10.1667649,36.7349347 10,28.994561 10,28.994561" id="Fill-28" fill="#639FC9"></path>
            </g>
        </g>
    </g>
</svg>