<?xml version="1.0" encoding="utf-8"?>
<!-- Generator: Adobe Illustrator 19.0.0, SVG Export Plug-In . SVG Version: 6.00 Build 0)  -->
<svg version="1.1" id="Layer_1" xmlns="http://www.w3.org/2000/svg" xmlns:xlink="http://www.w3.org/1999/xlink" x="0px" y="0px"
	 viewBox="-67 205 365 92" style="enable-background:new -67 205 365 92;" xml:space="preserve">
<style type="text/css">
	.st0{fill:#33B5AB;}
	.st1{fill:#191718;}
	.st2{fill:#FEFEFE;}
	.st3{fill:#FFFFFF;}
</style>
<g>
	<ellipse class="st0" cx="-20.3" cy="251" rx="45.7" ry="46"/>
	<path class="st1" d="M5.4,276.2H2.8c-2.4,0-3.6-1.2-3.6-3.6c0-2.7-0.5-2.4-2.4-2.4h-33.9c-1.9,0-1.9,0-2.2,1.9
		c0,2.9-1.2,3.9-4.1,3.9H-49c-2.2,0-3.4-1.2-3.4-3.4v-6.1c-0.2-0.2-0.2-1-0.7-1.5c-4.1-4.8-4.6-10.9-1.4-16.2c0.7-1,0.7-1.5-0.7-1.5
		c-1.4,0-2.2-0.7-2.4-2.2c-0.2-1.7-0.7-3.1-1-4.8c-0.2-1.7,0.5-2.4,1.9-2.4h5.5c1.4,0,1.9-0.5,2.4-1.7c1-2.7,2.4-5.3,4.1-7.7
		c1.7-2.4,4.3-3.4,7-4.4c3.8-1.2,7.8-1.9,11.8-2.2c7-0.5,14,0,20.9,1.7c5.8,1.5,9.6,4.8,11.8,10.2c0.2,0.5,0.5,1,0.5,1.2
		c0.5,2.4,2.2,3.1,4.3,2.9c1.4-0.2,2.6,0,4.1,0c1.7,0,2.4,1,1.9,2.4c-0.2,1.5-0.5,2.9-1,4.4c-0.5,1.9-1,2.4-2.9,2.4
		c-1,0-1.2,0.2-0.7,1.2c3.6,5.6,3.1,11.6-1.2,16.7c-0.5,0.5-0.5,1.2-0.5,1.9v5.6c0,2.4-1.2,3.6-3.6,3.6H5.4L5.4,276.2z"/>
	<path class="st2" d="M-20.3,241.1h-22.4c-1.2,0-1.4-0.2-1-1.5c0.7-1.7,1.4-3.4,2.4-5.1c1-2.2,2.6-3.6,4.8-4.4
		c3.6-1.2,7.2-1.9,10.8-2.2c6.5-0.5,12.8-0.2,19.2,1.5c3.8,1,6.5,2.9,7.9,6.8c0.5,1.2,1,2.2,1.4,3.1c0.7,1.7,0.5,1.7-1,1.7H-20.3z
		 M1.6,262.4c-3.1,0-5.8-2.4-5.8-5.6c0-3.4,2.4-5.8,5.8-5.8c3.1,0,5.8,2.4,5.8,5.8C7.3,259.7,4.7,262.4,1.6,262.4z M-36.2,256.6
		c0,3.1-2.4,5.8-5.8,5.8c-3.1,0-5.8-2.7-5.8-5.8c0-3.1,2.4-5.6,5.8-5.6C-38.9,250.8-36.4,253.4-36.2,256.6z"/>
	<g>
		<path class="st3" d="M70.1,264.1c0.5,0,1,0.2,1.4,0.7l4.1,4.4c-2.2,2.7-4.6,4.6-7.7,6.1c-3.1,1.5-6.7,1.9-10.8,1.9
			c-3.8,0-7.2-0.7-10.3-1.9c-3.1-1.2-5.5-3.1-7.7-5.3c-2.2-2.4-3.8-5.1-4.8-8.2c-1.2-3.1-1.7-6.8-1.7-10.4c0-2.4,0.2-4.8,0.7-7.3
			c0.5-2.2,1.4-4.4,2.4-6.3s2.4-3.6,3.8-5.1c1.4-1.5,3.1-2.9,5.1-3.9c1.9-1.2,3.8-1.9,6-2.4c2.2-0.5,4.6-1,7-1
			c1.9,0,3.6,0.2,5.3,0.5c1.7,0.2,3.1,0.7,4.6,1.5c1.4,0.5,2.9,1.2,4.1,2.2c1.2,0.8,2.4,1.6,3.4,2.7l-3.6,4.8l-0.7,0.7
			c-0.2,0.2-0.7,0.2-1.4,0.2c-0.5,0-1.2-0.2-1.7-0.5c-0.5-0.5-1.2-0.7-2.2-1.5c-0.7-0.5-1.9-1-3.1-1.5c-1.2-0.5-2.9-0.5-4.8-0.5
			c-2.2,0-4.1,0.5-5.8,1.2s-3.4,1.9-4.6,3.4c-1.2,1.5-2.2,3.1-2.9,5.3c-0.7,2.2-1,4.6-1,7.3c0,2.7,0.5,5.1,1.2,7.3
			c0.7,2.2,1.7,3.9,3.1,5.3c1.2,1.5,2.9,2.7,4.6,3.4c1.7,0.7,3.6,1.2,5.5,1.2c1.2,0,2.2,0,3.1-0.2c1,0,1.9-0.2,2.6-0.5
			c0.7-0.2,1.7-0.7,2.4-1.2c0.7-0.5,1.4-1,2.2-1.7c0.2-0.2,0.5-0.5,0.7-0.5C69.6,264.1,69.9,264.1,70.1,264.1L70.1,264.1z
			 M125.7,276.4h-8.2c-1,0-1.7-0.2-2.2-0.7c-0.5-0.5-1-1-1.2-1.7l-3.4-9.7H90.6l-3.4,9.7c-0.2,0.5-0.7,1.2-1.2,1.7
			c-0.5,0.5-1.2,0.7-2.2,0.7h-8.2l19.7-51.1h10.8L125.7,276.4L125.7,276.4z M107.9,257.1l-5.5-15.5c-0.2-0.7-0.7-1.7-1-2.9
			c-0.5-1.2-0.7-2.2-1-3.6c-0.2,1.2-0.7,2.4-1,3.6c-0.5,1.2-0.7,2.2-1,2.9L93,257.1H107.9L107.9,257.1z M170.2,276.4h-9.4
			c-1.7,0-3.1-0.7-3.8-1.9l-9.6-15.7c-0.5-0.7-0.7-1-1.2-1.5c-0.5-0.2-1.2-0.5-2.2-0.5h-3.6v19.4h-10.6v-50.6h15.9
			c3.6,0,6.5,0.5,9.1,1.2c2.4,0.7,4.6,1.7,6.3,3.1c1.7,1.2,2.9,2.9,3.6,4.6c0.7,1.9,1.2,3.9,1.2,6.1c0,1.7-0.2,3.4-0.7,4.8
			c-0.5,1.5-1.2,2.9-2.2,4.1c-1,1.2-1.9,2.4-3.4,3.4c-1.4,1-2.9,1.7-4.6,2.4c0.7,0.5,1.2,0.7,1.9,1.5c0.5,0.5,1.2,1.2,1.7,1.9
			L170.2,276.4L170.2,276.4z M145.7,249.5c1.7,0,3.1-0.2,4.3-0.7c1.2-0.5,2.2-1,3.1-1.7c0.7-0.7,1.4-1.7,1.7-2.7
			c0.5-1,0.5-2.2,0.5-3.4c0-2.4-0.7-4.4-2.4-5.6c-1.7-1.5-4.1-1.9-7.2-1.9h-5.5v16.2h5.5V249.5L145.7,249.5z M201.9,235.3
			c-0.2,0.5-0.7,1-1,1.2c-0.2,0.2-0.7,0.5-1.2,0.5c-0.5,0-1-0.2-1.7-0.5c-0.5-0.2-1.2-0.7-2.2-1.2c-0.7-0.5-1.7-0.7-2.6-1.2
			c-1-0.5-2.2-0.5-3.6-0.5c-2.4,0-4.3,0.5-5.5,1.7c-1.2,1.2-1.9,2.4-1.9,4.4c0,1.2,0.2,1.9,1,2.9c0.7,0.7,1.4,1.5,2.6,1.9l3.6,1.5
			l4.3,1.5c1.4,0.5,2.9,1.2,4.3,1.7c1.4,0.7,2.6,1.5,3.6,2.7c1.2,1,1.9,2.2,2.6,3.9c0.7,1.5,1,3.4,1,5.3c0,2.4-0.5,4.6-1.2,6.5
			c-0.7,1.9-1.9,3.9-3.4,5.3c-1.4,1.5-3.4,2.7-5.5,3.6c-2.2,1-4.8,1.2-7.5,1.2c-1.7,0-3.1-0.2-4.8-0.5s-3.1-0.7-4.6-1.5
			c-1.4-0.5-2.9-1.2-4.1-2.2c-1.2-0.8-2.4-1.6-3.4-2.7l3.1-5.1c0.2-0.5,0.5-0.7,1-1c0.5-0.2,1-0.5,1.4-0.5c0.7,0,1.2,0.2,1.9,0.7
			c0.7,0.5,1.4,1,2.4,1.5s1.9,1,3.1,1.5c1.2,0.5,2.6,0.7,4.3,0.7c2.4,0,4.3-0.5,5.8-1.7c1.4-1.2,1.9-2.9,1.9-5.1
			c0-1.2-0.2-2.4-1-3.1c-0.7-0.7-1.4-1.5-2.6-1.9c-1-0.5-2.4-1-3.6-1.5c-1.4-0.5-2.9-0.7-4.3-1.2c-1.4-0.5-2.9-1-4.3-1.7
			c-1.4-0.7-2.6-1.5-3.6-2.7c-1-1-1.9-2.4-2.6-4.1c-0.7-1.7-1-3.6-1-6.1c0-1.9,0.5-3.6,1.2-5.6c0.7-1.7,1.9-3.4,3.4-4.8
			c1.4-1.5,3.1-2.4,5.3-3.4c2.2-0.7,4.6-1.2,7.2-1.2c3.1,0,5.8,0.5,8.4,1.5c2.6,1,4.8,2.2,6.5,3.9
			C204.8,229.9,201.9,235.3,201.9,235.3z"/>
		<path class="st0" d="M246,257.1v5.6c0,0.5-0.2,1-0.5,1.2c-0.2,0.5-0.7,0.5-1.4,0.5h-3.8v12.1h-8.4v-12.1h-20.9
			c-0.7,0-1.2-0.2-1.7-0.5c-0.5-0.5-0.7-1-1-1.5l-1-4.8l23.8-32h9.1v31.5H246L246,257.1z M231.8,257.1v-15.3v-2.7
			c0-1,0.2-1.9,0.2-2.9l-14.7,20.6h14.4V257.1L231.8,257.1z M259.2,243.7c1-0.2,2.2-0.2,3.1-0.5c1,0,1.9-0.2,2.9-0.2
			c2.6,0,5.1,0.5,7,1.2c1.9,0.7,3.8,1.9,5.1,3.4c1.4,1.5,2.4,3.1,3.1,4.8c0.7,1.9,1,3.9,1,6.1c0,2.6-0.5,5.1-1.4,7.5
			c-1,2.2-2.2,4.1-3.9,5.8c-1.7,1.7-3.6,2.9-6,3.6c-2.4,1-4.8,1.5-7.7,1.5c-1.7,0-3.1-0.2-4.6-0.5c-1.4-0.2-2.9-0.7-4.1-1.5
			c-1.2-0.5-2.4-1.2-3.6-1.9c-1.2-0.7-2.2-1.5-2.9-2.4l2.9-4.1c0.7-1,1.4-1.2,2.4-1.2c0.7,0,1.2,0.2,1.9,0.5
			c0.7,0.5,1.2,0.7,2.2,1.2c0.7,0.5,1.7,1,2.6,1.2c1,0.5,2.2,0.5,3.9,0.5c1.4,0,2.9-0.2,3.8-0.7c1.2-0.5,1.9-1.2,2.9-2.2
			c0.7-1,1.2-1.9,1.7-3.1c0.5-1.2,0.5-2.4,0.5-3.9c0-2.7-0.7-4.6-2.2-6.1c-1.4-1.5-3.6-2.2-6.5-2.2c-2.4,0-4.8,0.5-7,1.5l-6-1.7
			l4.3-25.2h24.8v4.1c0,0.7,0,1.2-0.2,1.9c-0.2,0.5-0.5,1-1,1.5c-0.5,0.5-1,0.7-1.7,1c-0.7,0.2-1.7,0.2-2.6,0.2h-13L259.2,243.7
			L259.2,243.7z"/>
	</g>
	<circle class="st0" cx="290" cy="272" r="5"/>
	<g>
		<path class="st3" d="M288.4,258.2c0.2,0,0.2,0.2,0.2,0.2v0.5c0,0.2,0,0.2-0.2,0.5c0,0.2-0.2,0.2-0.2,0.5c0,0.2-0.2,0.5-0.2,0.7
			c0,0.2-0.2,0.5-0.2,1s0,0.7,0.2,1.2l0.7,0.7c0.2,0.2,0.7,0.2,0.9,0.5c0.5,0,0.9,0.2,1.4,0.2c1.2,0,1.9-0.2,2.6-0.7
			c0.5-0.5,0.9-1,0.9-1.7c0-0.5,0-0.7-0.2-1c-0.2-0.2-0.2-0.5-0.2-0.5c-0.2-0.2-0.2-0.2-0.2-0.5c0-0.2-0.2-0.2-0.2-0.5
			c0-0.2,0-0.5,0.2-0.7l1.2-1c0.5,0.2,0.7,0.7,0.9,1.2s0.5,0.7,0.7,1.2c0.2,0.5,0.2,0.7,0.2,1.2v1.2c0,0.7-0.2,1.5-0.5,2
			c-0.2,0.7-0.7,1.2-1.2,1.7c-0.5,0.5-1.2,1-1.9,1.2c-0.7,0.2-1.6,0.5-2.6,0.5c-0.7,0-1.6-0.2-2.3-0.5c-0.7-0.2-1.4-0.7-1.9-1.2
			c-0.5-0.6-0.9-1.2-1.2-2c-0.2-0.7-0.5-1.5-0.5-2.4c0-1,0.2-1.7,0.5-2.4c0.2-0.7,0.7-1.2,1.2-2
			C286.6,257.5,288.4,258.2,288.4,258.2z M285.4,250.7c0-1,0.2-1.7,0.5-2.4c0.2-0.7,0.7-1.5,1.2-2c0.5-0.5,1.2-1,1.9-1.2
			c0.7-0.2,1.4-0.5,2.3-0.5c0.9,0,1.6,0.2,2.3,0.5c0.7,0.2,1.4,0.7,1.9,1.2c0.5,0.6,0.9,1.2,1.2,2c0.2,0.7,0.5,1.5,0.5,2.4
			c0,1-0.2,1.7-0.5,2.4c-0.2,0.7-0.6,1.4-1.2,2c-0.5,0.5-1.2,1-1.9,1.2c-0.7,0.2-1.6,0.5-2.3,0.5c-0.9,0-1.6-0.2-2.3-0.5
			c-0.7-0.2-1.4-0.7-1.9-1.2c-0.5-0.6-0.9-1.2-1.2-2C285.6,252.4,285.4,251.6,285.4,250.7z M294.5,250.7c0-0.7-0.2-1.5-0.9-1.7
			c-0.5-0.5-1.4-0.5-2.6-0.5s-1.9,0.2-2.6,0.5c-0.5,0.5-0.7,1-0.7,1.7c0,0.7,0.2,1.5,0.7,1.7c0.5,0.5,1.4,0.5,2.6,0.5
			s1.9-0.2,2.6-0.5C294.3,252.1,294.5,251.4,294.5,250.7z M296.8,242.8h-11.2v-2.2c0-0.5,0.2-0.7,0.5-1l0.7-0.2
			c-0.2-0.2-0.5-0.5-0.5-0.7c-0.2-0.2-0.2-0.5-0.5-0.7c-0.2-0.2-0.2-0.5-0.2-0.7v-1c0-0.7,0.2-1.2,0.5-1.7c0.5-0.5,0.9-0.7,1.4-1
			c-0.2-0.2-0.7-0.5-0.9-0.7c-0.2-0.2-0.5-0.5-0.7-1c-0.2-0.2-0.2-0.7-0.2-1v-1c0-0.7,0-1.2,0.2-1.7c0.2-0.5,0.5-1,0.9-1.2
			c0.5-0.2,0.7-0.7,1.4-0.7c0.5-0.2,1.2-0.2,1.9-0.2h7.2v3.4h-7.2c-1.2,0-1.6,0.5-1.6,1.5c0,0.5,0.2,1,0.5,1.2
			c0.2,0.2,0.7,0.5,1.4,0.5h7.2v3.4h-7.2c-0.7,0-1.2,0.2-1.4,0.5c-0.2,0.2-0.5,0.7-0.5,1.2c0,0.2,0,0.7,0.2,1
			c0.2,0.2,0.2,0.5,0.5,0.7h8.2v3.4H296.8L296.8,242.8z"/>
	</g>
</g>
</svg>
