<?xml version="1.0" encoding="UTF-8"?>
<svg width="342px" height="208px" viewBox="0 0 342 208" version="1.1" xmlns="http://www.w3.org/2000/svg" xmlns:xlink="http://www.w3.org/1999/xlink">
    <!-- Generator: Sketch 53.2 (72643) - https://sketchapp.com -->
    <title>Group 20@3x</title>
    <desc>Created with Sketch.</desc>
    <g id="Page-1" stroke="none" stroke-width="1" fill="none" fill-rule="evenodd">
        <g id="Landing-Page" transform="translate(-367.000000, -305.000000)">
            <g id="Group-20" transform="translate(367.000000, 305.000000)">
                <path d="M310.583997,208 L36.6832949,208 C27.8889266,208 20.6929035,203.978779 20.6929035,199.060872 L20.6929035,195.486453 C20.6929035,193.286337 22.1389703,191.264942 24.521453,189.702674 L15.9900059,189.702674 C7.19563759,189.702674 0,185.679913 0,180.763855 C0,175.847488 7.19563759,171.825651 15.9900059,171.825651 L40.4736785,171.825651 C35.4315277,170.317 31.9803974,167.342837 31.9803974,163.938512 C31.9803974,159.022453 39.1756494,155 47.9704033,155 L326.009994,155 C334.80629,155 342,159.022453 342,163.938512 C342,168.85457 334.80629,172.877023 326.009994,172.877023 L293.089326,172.756233 C296.498049,173.29332 297.874338,174.721855 298.73288,176.52293 C300.057895,179.301116 299.937229,182.65768 297.227829,184.863035 C295.720466,186.089738 293.491032,186.715262 292.066169,186.745151 L310.583997,186.547634 C319.37875,186.547634 326.574388,190.568547 326.574388,195.486453 L326.574388,199.060872 C326.574388,203.978779 319.37875,208 310.583997,208" id="Fill-3" fill="#DBFFFC"></path>
                <g id="Seller" transform="translate(10.000000, 7.000000)">
                    <path d="M62.0754125,27.5167984 C62.0064702,27.5231952 61.9371511,27.529592 61.8685856,27.5363651 C60.0757087,27.7094552 58.2685159,28.3442443 57.0094711,29.6303789 C56.3705303,30.2828533 55.8954688,31.0760575 55.4678757,31.8828078 C54.3241115,34.0389083 53.5114963,36.3116564 52.6506593,38.5866623 C50.144625,45.2062294 48.1573534,52.0225924 46.6975094,58.9477012 C45.9945238,62.283072 41.8172978,100.25979 44.2920631,100.099494 C59.4160476,99.1204061 74.5701707,98.607909 89.7258008,98.562755 C90.7335641,78.8767675 91.6452603,58.5326613 84.6839703,40.0880307 C83.6016137,37.2207557 82.304142,34.3734237 80.2656346,32.0829903 C75.9109668,27.1916901 68.1826466,26.9482351 62.0754125,27.5167984" id="Fill-90" fill="#7DB7E0"></path>
                    <path d="M87.8418855,96.035995 C84.0304009,94.9365539 79.9020236,93.2401873 75.9216058,93.2755439 C75.4987007,93.2789291 75.0754143,93.2905893 74.6521279,93.3003688 C74.2978638,93.3266982 73.937117,93.3545322 73.5695061,93.3838706 C70.9024203,93.5952582 67.9054761,93.8777352 64.7765886,94.2523652 C64.6229089,94.2707958 64.4699919,94.2888502 64.3159309,94.307657 C60.3137768,95.1667482 57.715332,95.5026363 56.0282877,95.5910279 C54.4056898,96.0179405 52.8235137,96.5569413 51.3427739,97.2644503 C50.6033574,97.6172644 49.918091,98.013334 49.2568489,98.4300911 L49.2358753,102.719153 L56.8653271,175.570763 L63.1211954,175.570763 L63.1211954,176.3125 L63.1574227,176.3125 L70.0356364,127.446611 L70.0642369,127.171656 L73.8326301,176.3125 L73.868476,176.3125 L73.868476,175.570763 L80.1544701,175.570763 L88.1275085,120.848835 L87.8418855,96.035995" id="Fill-93" fill="#BABCBE"></path>
                    <path d="M89.3369338,43.6495673 C90.3530531,43.0999856 91.3569531,42.5076086 92.4200408,42.0154626 C95.4286859,40.6223631 98.4014364,39.154184 101.334092,37.6124271 C103.129962,36.6683028 104.968599,35.6483482 106.176411,34.0360166 C106.858406,33.1249272 107.305178,32.0678083 107.730947,31.0170711 C109.980462,25.4653197 111.840484,19.7604062 113.292683,13.9575139 C112.071507,13.3809036 108.718809,11.8019824 107.561021,12.8804989 C107.170001,13.2450098 106.953106,13.7502946 106.745758,14.2390619 C105.758278,16.5680271 104.751323,18.8879827 103.723748,21.1993042 C102.575125,23.783915 101.390225,26.3764091 99.7283867,28.6753424 C99.5130198,28.9730325 99.2819968,29.272975 98.9646743,29.4636769 C98.625586,29.6675176 98.2196729,29.7275812 97.8259791,29.7835154 C91.7934148,30.639046 88.2180951,28.4335865 82.2943598,29.8893775 C80.9590086,30.2062128 77.2679865,34.2285954 76.4363037,35.3029826 C75.7856207,36.1431219 75.6386061,37.2520457 75.5763635,38.3069122 C75.4938826,39.7037658 75.5343593,41.1666892 76.1873334,42.4107561 C76.9460817,43.857162 78.4620509,44.8196808 80.0654651,45.2239838 C81.6688793,45.6290375 83.3608841,45.5333112 84.997138,45.2878013 C86.582605,45.0501748 87.9710341,44.3887247 89.3369338,43.6495673" id="Fill-43" fill="#7DB7E0"></path>
                    <polyline id="Fill-91" fill="#191718" points="73.2571781 175.926027 73.2571781 178.5875 80.1205364 182 83.5520222 178.5875 80.1205364 175.175 79.6777267 175.175 79.5671209 175.926027 73.2571781 175.926027"></polyline>
                    <polyline id="Fill-92" fill="#191718" points="56.5729642 175.175 56.0988468 175.175 52.66749 178.5875 56.0988468 182 62.9623341 178.5875 62.9623341 175.926027 56.6522416 175.926027 56.5729642 175.175"></polyline>
                    <path d="M75.1475305,8.71146485 C76.0120302,10.3079704 76.3710732,12.1169416 76.3566785,13.9051936 C76.3529771,14.3809809 76.3575011,14.9306038 76.75397,15.2300899 C77.1779944,15.5510485 76.7543813,16.1903288 77.1117792,15.8053291 C77.469177,15.4199527 78.6849054,14.0818716 78.7638702,13.5782076 C78.9493552,12.3979688 79.0139253,11.2011547 78.9559356,10.0099912 C78.9053487,8.97365643 78.7387824,7.88571208 78.0577113,7.06485656 C77.6542507,6.57814461 77.0990296,6.22290517 76.5524454,5.87821366 C75.7595075,5.37831679 74.9414818,4.87352267 74.0107668,4.66557763 C72.4059724,4.30657106 71.3823093,4.80006382 72.7539109,5.92153554 C73.7364465,6.72430888 74.5552947,7.61749311 75.1475305,8.71146485" id="Fill-94" fill="#363636"></path>
                    <path d="M64.983876,28.6613189 C66.9129275,28.9658793 68.8419789,29.2704396 70.7706727,29.575 C71.1519054,27.7766073 71.412617,25.9431463 71.5492313,24.0967253 C73.2522611,23.8771674 75.265713,23.3961221 75.9341218,21.5119646 C76.1444078,20.918091 76.1819588,20.2617043 76.2170065,19.6198024 C76.361131,16.9652863 76.5048979,14.3107702 76.6490224,11.6562542 C76.6990905,10.737999 76.7459399,9.79191785 76.4963148,8.92321565 C76.0582192,7.39927032 74.8068749,6.43565507 73.564829,5.80404491 C70.3955198,4.19166654 66.6189563,4.03805224 63.5340476,5.90734386 C62.7132888,6.40477974 61.9293658,7.06002287 61.4265393,7.98056513 C60.6508417,9.39930562 60.6540604,11.205703 60.6837436,12.894698 C60.711281,14.4540928 60.7388185,16.0138687 60.7659983,17.5732635 C60.7978273,19.3667009 60.9476739,21.4372539 62.1829248,22.4523281 C62.8388166,22.9916934 63.7128622,23.1327289 64.2679026,23.813892 C65.2467334,25.0149805 64.6784608,27.0234017 64.983876,28.6613189" id="Fill-95" fill="#E8B98A"></path>
                    <path d="M70.1786269,21.937436 C69.2363862,22.5402446 68.231206,22.5200604 67.2319495,22.1388897 C66.8072933,21.9766399 67.0275814,21.2146867 67.4529781,21.3773247 C68.2811873,21.6932849 69.0753352,21.7297717 69.8594868,21.2278841 C70.2541542,20.9755817 70.5707027,21.6866862 70.1786269,21.937436 Z M76.688418,18.4770119 C76.6839752,17.9739598 76.5495809,16.4935271 75.7976395,17.378138 C75.6010463,17.6094799 75.5392175,17.9483414 75.5121906,18.2689595 C75.4851636,18.5899657 75.4829423,18.9218404 75.3733535,19.2195572 C75.1215957,19.9019381 74.3848338,20.1786944 73.7432216,20.1313391 C73.4877614,20.1123194 73.2297097,20.0533195 73.010162,19.9038788 C72.7972786,19.7583198 72.6332657,19.5374582 72.4736957,19.32009 C72.0856925,18.7933602 71.6976892,18.2658542 71.309686,17.7387363 C70.6425277,16.8327767 69.218615,17.1304935 68.2571222,17.2112303 C67.1490176,17.3036118 66.0305464,17.597447 65.0938591,18.3201963 C64.99945,18.3931699 64.9068919,18.4700251 64.8139637,18.5468802 C64.5877518,18.7343603 64.3600591,18.9198996 64.1016371,19.0371232 C63.2301107,19.4314912 62.1997548,18.9129128 61.6436661,18.0550847 C61.3889465,17.6618811 61.1579216,17.1607698 60.7369677,17.0742107 C60.4074611,17.0062831 60.0720309,17.2422829 59.8858041,17.5640655 C59.6995774,17.8854599 59.6347867,18.2778871 59.5933207,18.6602222 C59.4418958,20.0525432 59.5529654,21.5026996 60.0609239,22.7727509 C61.1623644,25.5271165 63.5270369,25.9874713 65.9224386,26.0588923 C66.8694923,26.0868396 67.816546,26.114787 68.7632295,26.1427343 C70.4944349,26.1943593 72.3256029,26.218425 73.8339285,25.2266826 C75.1641724,24.3517756 76.00571,22.7867246 76.4000072,21.1203644 C76.6036348,20.2602074 76.6954524,19.3658926 76.688418,18.4770119 L76.688418,18.4770119 Z" id="Fill-96" fill="#191718"></path>
                    <path d="M77.1797397,1.16480641 C77.1923881,0.856454074 73.1980406,0.425575172 72.8738816,0.380414325 C69.8397242,-0.0434313305 67.0657614,-0.440254512 64.2263886,1.11520352 C61.8007973,2.44411697 60.1847002,4.53558243 59.6838257,7.34443905 C59.2053569,10.0278077 59.8796944,13.6021777 61.2688441,15.925 C61.2959477,15.2053878 60.9822687,13.4874248 61.1788601,12.8122331 C61.3125712,12.1325994 61.5727657,11.48406 61.916078,10.8914164 C62.602341,9.70723976 63.6225204,8.7344307 64.7789406,8.0633109 C66.6223466,6.99351706 68.7288381,6.48823381 70.817622,6.29870632 C72.731136,6.12509618 74.5106183,6.37299116 76.3616133,6.99820977 C77.2509727,7.29841835 77.2297692,7.51969143 77.8227959,6.60018697 C77.9275964,6.43805212 77.1627548,1.53608781 77.1797397,1.16480641 Z" id="Fill-97" fill="#191718"></path>
                    <path d="M23.7325487,111.475 L22.9268293,98.0377622 C22.948831,98.0069708 22.9708328,97.9761793 22.9928345,97.9453879 L23.7996919,111.395931 C23.7773108,111.42216 23.7549298,111.44839 23.7325487,111.475" id="Fill-103" fill="#5975AB"></path>
                    <polyline id="Fill-42" fill="#E8B98A" points="111.471757 13.6067941 113.292683 8.21255882 112.017239 4.87155882 109.016328 4.55 108.448496 8.25270588 107.728762 7.71358824 106.429454 8.06879412 107.450718 11.5742059 107.851117 13.65 111.471757 13.6067941"></polyline>
                    <g id="Car" transform="translate(97.727316, 107.375000) rotate(15.000000) translate(-97.727316, -107.375000) translate(13.544389, 47.656250)">
                        <g id="Group-8">
                            <path d="M1.3206382,86.5661007 L6.2114058,73.9277477 L6.47984924,73.8024918 C6.4917423,72.5232612 6.50363536,71.2440306 6.51552843,69.9647999 C6.57839176,63.2117857 6.6409153,56.4587714 6.70377863,49.7057571 C6.75882653,43.7667373 4.93646937,34.5102933 11.4881883,31.3998283 L73.758231,1.83977611 C80.6745572,-1.44354875 88.9752361,-0.268979377 95.0831738,4.85739642 L116.35103,22.7065294 L117.391843,22.2223867 L141.392385,18.8485805 C150.424657,18.9316343 158.620677,24.1184435 162.514466,32.2161861 L168.365854,44.3842387 L10.2611639,119.4375 L1.9366989,102.125516 C-0.41099187,97.2432368 -0.633901864,91.6165127 1.3206382,86.5661007" id="Fill-98" fill="#4E6279"></path>
                            <path d="M73.5755768,53.0833333 C73.1133085,53.0833333 72.6692478,52.8167437 72.456827,52.3609169 L71.9847807,51.3498102 C71.6897517,50.7175232 71.9514003,49.9595384 72.5687694,49.6573805 L77.8310743,47.0826497 C78.0033712,46.9983908 78.1854462,46.9583333 78.3644867,46.9583333 C78.8267549,46.9583333 79.2704784,47.2245776 79.4832364,47.6807498 L79.9552828,48.6918565 C80.2499745,49.3241435 79.9886632,50.0821282 79.371294,50.3842861 L74.1089891,52.9590169 C73.936355,53.0432758 73.7546172,53.0833333 73.5755768,53.0833333" id="Fill-115" fill="#879EB8"></path>
                        </g>
                        <g id="Group-7" transform="translate(105.741969, 46.958333)">
                            <g id="Group-4" transform="translate(5.133105, 0.000000)">
                                <path d="M1.50753803,21.9121159 C5.17322464,29.5408376 14.3642699,32.7708285 22.036266,29.1258184 C29.7086018,25.4808083 32.9565754,16.3416058 29.2908887,8.7128841 C25.6252021,1.08416239 16.4341569,-2.14582846 8.76216073,1.4991816 C1.09016459,5.14385397 -2.15780898,14.2830565 1.50753803,21.9121159" id="Fill-109" fill="#191718"></path>
                                <path d="M22.2657287,20.75063 C25.569595,17.2613764 25.4034182,11.7700258 21.8947135,8.48479254 C18.3860088,5.19955931 12.8631733,5.36479892 9.55964614,8.85371526 C6.25577981,12.3426316 6.42161748,17.8343195 9.93066131,21.1192155 C13.4390269,24.4044487 18.9618623,24.2395463 22.2657287,20.75063" id="Fill-110" fill="#F7F7F7"></path>
                                <path d="M15.0532726,23.4791667 C13.6604771,23.4791667 12.266969,22.8485646 11.2928316,21.7382771 C11.9708797,22.0068376 12.683133,22.127254 13.4007309,22.127254 C14.4336586,22.127254 15.4772754,21.8777067 16.443574,21.4610023 C17.6029899,20.9619077 18.6722606,20.2358439 19.6781091,19.4297665 C20.046172,19.1342708 21.5266185,17.9443659 21.5590422,17.3541667 C21.466403,19.1715048 20.5681586,20.9171477 19.2060052,21.9276162 C18.7004087,22.3031255 18.1406539,22.5788158 17.5759107,22.8287592 C17.0421661,23.0644428 16.4980887,23.280321 15.9326329,23.3932115 C15.6422445,23.450647 15.3479367,23.4791667 15.0532726,23.4791667" id="Fill-111" fill="#B3B3B3"></path>
                            </g>
                            <path d="M2.49485252,25.5208333 C2.01641708,24.8789798 1.59548918,24.1869708 1.23955499,23.4454842 C-2.26125849,16.1478733 1.90684652,6.89759062 10.5496499,2.7851866 C11.1349337,2.50662079 11.7256619,2.25923266 12.3194527,2.04166667 C5.69860047,6.11001526 3.08796273,14.5808559 6.51765743,21.7303728 C6.76061824,22.2366712 7.02705846,22.7226364 7.31629752,23.1896238 L2.49485252,25.5208333" id="Fill-107" fill="#879EB8"></path>
                        </g>
                        <g id="Group-10" transform="translate(14.372695, 6.125000)">
                            <g id="Group-9">
                                <path d="M43.1180845,41.435759 L1.6700015,61.25 L0.00649133408,33.5513097 C-0.0765655215,32.172447 0.643147557,30.908235 1.83611521,30.3380337 L31.1317937,16.3333333 L43.1180845,41.435759" id="Fill-99" fill="#CBEAFF"></path>
                                <path d="M37.9849792,12.3452759 L61.7946754,1.3101709 C66.8404163,-1.02797071 72.8958494,-0.191648128 77.3517533,3.45934846 L93.4225164,16.6278016 L50.005075,36.75 L37.9849792,12.3452759" id="Fill-100" fill="#CBEAFF"></path>
                                <path d="M0.443286745,40.8333333 L0.00620138375,33.2640193 C-0.030006871,32.6398292 0.0934891407,32.039517 0.346623636,31.5172286 C0.649221193,31.0104105 1.0824271,30.5954048 1.61455913,30.3310656 L11.2928316,25.5208333 C8.04895997,30.1578663 4.74204713,34.7484887 1.47586858,39.3687062 C1.13124358,39.8563547 0.787588453,40.3450122 0.443286745,40.8333333" id="Fill-102" fill="#AEDEFF"></path>
                                <path d="M1.76811501,61.25 L1.02662106,49.252269 C1.86328561,48.1173622 2.70343626,46.9858463 3.54777023,45.8573821 C9.34829582,38.1039378 15.2816419,29.6082435 20.9333109,21.7520575 L20.9388887,21.7496839 L30.7986318,17.3541667 C26.838071,26.0706032 20.8029307,34.9854026 15.5124219,42.946704 C12.3323994,47.7318262 8.98504396,52.4138676 5.42329326,56.9382359 C4.27497117,58.3969658 3.02241462,59.819753 1.76811501,61.25" id="Fill-104" fill="#AEDEFF"></path>
                                <path d="M50.3044319,37.7708333 L50.3044319,37.7708333 L58.1855463,33.8872882 C58.185216,33.8876288 58.185216,33.8876288 58.185216,33.8876288 L50.3044319,37.7708333 M76.9965794,3.49037129 L76.8720643,3.38170016 C76.7511822,3.27643565 76.6296396,3.17389643 76.5064456,3.07340118 C76.6296396,3.17389643 76.7515125,3.27677631 76.8720643,3.38170016 L76.9965794,3.49037129" id="Fill-105" fill="#5975AB"></path>
                            </g>
                            <path d="M50.4357096,36.75 L50.4357096,36.75 L48.2511898,32.2970847 C49.8672434,29.3238256 51.2984687,26.2529411 53.1095809,23.3842807 C55.333999,19.8611314 57.7524527,16.4412526 60.2244452,13.0791521 C62.7281518,9.67454799 65.2748258,6.24072267 68.0963551,3.07619745 C69.0262936,2.03286709 69.986923,1.0184259 70.9414143,0 C73.2633617,0.42835651 75.5116506,1.40660324 77.475536,2.91813722 C77.4782641,2.92012957 77.4809922,2.92212193 77.4837203,2.92444634 C77.4854253,2.92577458 77.4874714,2.92710282 77.4891764,2.92876311 C77.6163737,3.02672061 77.741866,3.12667046 77.8666762,3.22927679 L77.9952375,3.33520371 L78.0232005,3.35844786 C75.6228204,7.4866092 73.182883,11.595179 70.816604,15.732306 C67.3164618,21.8511629 62.8321603,27.3374468 58.5725854,32.9648559 L50.4357096,36.75" id="Fill-106" fill="#AEDEFF"></path>
                        </g>
                        <g id="Group-6" transform="translate(24.638905, 85.750000)">
                            <path d="M2.58138407,25.5208333 C2.0939398,24.8730804 1.6640677,24.1748178 1.29944404,23.4280931 C-2.29061609,16.07893 1.81340639,6.84316086 10.4663271,2.79931235 C11.0783366,2.51331817 11.6973245,2.26076961 12.3194527,2.04166667 C5.57862544,6.15411282 2.92960838,14.6530545 6.43557828,21.8302115 C6.68435978,22.3397453 6.9586126,22.8305086 7.25484751,23.3004537 L2.58138407,25.5208333" id="Fill-108" fill="#879EB8"></path>
                            <g id="Group-3" transform="translate(4.106484, 0.000000)">
                                <path d="M1.50775628,21.9123658 C5.17311755,29.5411081 14.3641986,32.77077 22.0365642,29.1257501 C29.7085902,25.4807302 32.9565764,16.3418407 29.2908755,8.71276068 C25.6255142,1.08401837 16.4344332,-2.14564351 8.7620676,1.4990387 C1.09004161,5.14439629 -2.1579446,14.2832858 1.50775628,21.9123658" id="Fill-112" fill="#191718"></path>
                                <path d="M22.2656067,21.7713128 C25.569473,18.2824324 25.4036353,12.7911382 21.8945915,9.50560159 C18.386226,6.22040216 12.8633905,6.38564007 9.55952416,9.87452052 C6.25565783,13.363401 6.42183464,18.8550323 9.93053933,22.1402317 C13.439244,25.4254312 18.9617404,25.2601933 22.2656067,21.7713128" id="Fill-113" fill="#F7F7F7"></path>
                                <path d="M16.0797632,24.5 C14.6873723,24.5 13.2935563,23.869794 12.3194527,22.7591105 C12.9974772,23.0276709 13.7097058,23.1480874 14.4272788,23.1480874 C15.4605269,23.1480874 16.5041075,22.8985401 17.4703726,22.4822318 C18.6297482,21.9827411 19.6986256,21.2566772 20.7044392,20.4505998 C21.0724893,20.1555002 22.5528844,18.9651992 22.5856633,18.375 C22.492671,20.1927343 21.594814,21.937981 20.2323517,22.9488456 C19.7267727,23.3239588 19.1673936,23.5996492 18.6023137,23.8495926 C18.0689439,24.0860684 17.5245291,24.3015505 16.9594493,24.4140448 C16.6687146,24.4718764 16.3744171,24.5 16.0797632,24.5" id="Fill-114" fill="#B3B3B3"></path>
                            </g>
                        </g>
                    </g>
                    <polyline id="Fill-117" fill="#E8B98A" points="54.1364879 77.35 50.3797468 78.6973118 51.8017719 85.397491 55.8252686 86.45 58.3868478 83.8674432 56.0783237 81.6449223 56.7826875 81.3927718 57.7324503 81.8836918 58.1914151 80.8876344 54.1364879 77.35"></polyline>
                    <path d="M59.3390039,28.6147033 C60.5647721,28.3631506 61.8245046,28.3646346 63.0281388,28.7148792 C63.66621,28.9003901 64.2859633,29.1864478 64.7668063,29.6350131 C65.2732181,30.1076948 65.5995044,30.7365767 65.825806,31.3828966 C68.7387228,39.7078827 59.7687097,49.1221886 54.4000585,54.5457846 C50.9669916,58.0133539 53.9619571,64.5863753 54.7545849,68.8601749 C55.1194151,70.8277032 57.093543,76.5303076 55.8044256,77.8366752 C55.5315663,78.1134574 51.0612521,79.5496826 51.0952164,79.625 C49.0172874,75.1404601 46.9393584,70.6559202 44.8610478,66.1713802 C43.3261661,62.858898 41.2207604,59.8547349 39.7973122,56.4695324 C39.2576994,55.1861682 38.7730401,53.8070803 38.9970519,52.43801 C39.1706897,51.3765168 39.754189,50.4263301 40.3262396,49.5069382 C43.1834397,44.9122048 46.2608354,40.5745895 49.6408569,36.3326978 C51.3310585,34.2111954 53.0121012,32.0243932 55.2407707,30.4419854 C56.4547087,29.5797309 57.8724325,28.916344 59.3390039,28.6147033" id="Fill-118" fill="#639FC9"></path>
                </g>
                <g id="C45-Staff" transform="translate(213.000000, 0.000000)">
                    <path d="M3.27207887,39.5405382 C3.40539979,39.5226561 3.54351068,39.504774 3.67204163,39.524643 C4.87192989,39.7070404 5.38765032,40.5176955 6.48774748,41.019189 C6.65619487,41.0958833 6.90407597,41.0589269 7.16393201,41.0219706 C7.66248838,40.951237 8.20495283,40.8805033 8.31232806,41.6100929 C8.37260189,42.020189 8.37779103,43.0454293 8.49793952,43.9200626 C8.6731727,45.1956522 9.66948711,46.7068881 10.6833647,47.7615345 C14.665429,51.9054126 19.6701526,54.8547665 24.7127968,57.6181466 C25.0001952,57.7755091 25.3027618,57.9356532 25.630875,57.9436008 C26.2180458,57.9575091 26.6922532,57.4953562 27.0998,57.0741335 C28.9910411,55.1210111 31.0643011,53.3435306 33.285252,51.7718929 C35.2667042,50.3691417 37.4265829,49.107063 39.8219686,48.6921983 C42.2169551,48.2769363 44.8977434,48.8436001 46.5323217,50.6345915 C47.756559,51.9761462 48.2694853,53.9272817 47.8627368,55.6940329 C46.8540483,60.0751468 40.3564498,61.2041033 36.7376251,62.5691034 C33.3139918,63.8605882 29.7989499,64.9136451 26.2276258,65.7159552 C25.7865491,65.8149028 25.3303041,65.9106713 24.885635,65.8292085 C24.4118268,65.7421822 23.99949,65.4636189 23.6035188,65.1902215 C18.5049916,61.6718195 13.7469517,57.7246445 9.04479478,53.6618319 C7.75269954,52.5447969 7.2146259,50.8940806 6.01034683,49.8720194 C5.24155614,49.2203163 4.16780384,49.2584647 3.30600785,48.8034647 C2.45339264,48.3528358 1.44909494,47.544565 0.82440262,46.8133859 C-0.408217124,45.3708967 0.0436370049,43.4674468 0.274354042,41.7658659 C0.33183372,41.3418615 0.369355176,41.0557479 0.603265528,40.729499 C0.98406839,40.1997915 1.59119748,40.0138177 2.18714997,39.8079749 C2.54001132,39.6859792 2.90404927,39.5914028 3.27207887,39.5405382" id="Fill-4" fill="#E8B98A"></path>
                    <path d="M36.7852766,61.4599425 C34.5235178,58.606589 32.2617589,55.7532355 30,52.899882 C30.1453307,53.0829017 42.2665476,41.801868 43.0110697,41.1551185 C45.8525632,38.6869438 48.8151655,36.150984 52.4234175,35.1003151 C60.1275336,32.8566287 66.708712,41.1503337 62.0414518,48.0408873 C56.9743336,55.52157 48.6372744,61.6880194 40.1191474,64.5641009 C39.9341088,64.6271011 39.7383491,64.6889052 39.5465602,64.6506265 C39.2836943,64.5983921 39.0946849,64.3739039 38.9275149,64.1633714 C38.2135679,63.2622284 37.4992237,62.3610855 36.7852766,61.4599425" id="Fill-5" fill="#29ADA3"></path>
                    <polyline id="Fill-6" fill="#C67A6D" points="47.88823 172.106473 48 180.747417 43.3239892 180.815287 43.2 171.235669 47.88823 172.106473"></polyline>
                    <path d="M44.4124638,179.617834 L49.0250964,181.326038 L50.4,182.984405 L50.1672487,186.914741 L37.6989557,188 C36.6456646,186.281563 37.3308745,183.94997 39.0885337,183.274075 L39.6689851,183.050705 L44.4124638,179.617834" id="Fill-7" fill="#2EB9AE"></path>
                    <polyline id="Fill-8" fill="#C67A6D" points="85.4374245 162.853503 88.8 171.458969 84.128217 173.630573 80.4 164.089794 85.4374245 162.853503"></polyline>
                    <path d="M83.9726192,173.802816 C84.1378307,173.614674 84.3303849,173.436556 84.5537477,173.268848 C85.1079187,172.852853 89.5747907,170.420887 89.9579736,171.516968 C90.0203611,171.695086 90.0007206,171.890939 89.9787694,172.078696 C89.6109909,175.233157 88.8908382,178.343283 87.8367966,181.329651 C87.3858347,182.607319 86.7018822,184.022239 85.4163905,184.341078 C84.8525918,184.480643 84.2606802,184.377319 83.6953411,184.245851 C82.8611964,184.051926 82.0405304,183.795929 81.2418157,183.480946 C80.9502886,183.366056 80.6398913,183.224178 80.4885437,182.943508 C80.1854634,182.380624 80.7138321,181.714031 81.2660775,181.410613 C81.8183229,181.107581 82.4926477,180.889753 82.7618384,180.30952 C82.8827625,180.048897 82.9000923,179.75242 82.9151116,179.464424 C83.0275632,177.327008 82.6744188,175.274795 83.9726192,173.802816" id="Fill-9" fill="#2EB9AE"></path>
                    <path d="M53.8495867,130.574235 C55.5358481,138.552406 60.3571806,144.283755 65.5072313,150.150502 C71.400849,156.864288 76.9444134,163.905819 82.1063169,171.235669 C84.337808,170.273143 86.568904,169.310617 88.8,168.34849 C86.9347611,157.136679 81.7941926,146.850357 77.8108546,136.247044 C75.0424307,128.878565 72.7998769,121.087165 72.678188,113.124127 C72.6177386,109.164112 73.5450243,105.542594 74.0416575,101.691297 C74.6568189,96.9200844 74.6923774,92.0298009 75.2478796,87.2366858 C75.434364,85.6294232 75.5406443,83.7282658 74.3458799,82.6829079 C73.8136882,82.2173752 73.1127914,82.0214453 72.4292787,81.8844536 C47.0579203,76.8018242 50.6426085,115.404002 53.8495867,130.574235" id="Fill-10" fill="#191718"></path>
                    <path d="M73.1997703,89.759977 C73.2130791,84.9347455 72.6470631,80.2837859 71.780033,76.7368139 C64.6296772,76.338648 56.5492701,77.1619742 49.4775929,78.6553943 C42.5660128,80.1150715 38.255523,81.681138 38.2058106,89.4820945 C38.1138232,103.836712 32.7237537,116.064734 30.3962771,129.862395 C29.0438668,137.880894 31.3807378,145.052645 33.970085,152.478857 C36.9332532,160.976902 39.4572305,169.640485 41.5255767,178.420382 C43.9207718,178.405694 46.3155753,178.390609 48.7107704,178.375921 C51.0738676,167.305875 50.0991928,155.807096 50.2999993,144.469092 C50.4397418,136.589931 51.2147845,128.526177 53.9963265,121.134105 C57.0538307,113.008423 61.4574823,116.242182 66.5113086,111.530088 C71.4250008,106.948599 73.1766756,98.094071 73.1997703,89.759977" id="Fill-11" fill="#191718"></path>
                    <path d="M65.0051611,33.0607297 C65.7894207,33.6970442 66.478807,34.4650647 67.1596392,35.2255477 C67.7700941,35.9070865 68.3801601,36.5886254 68.9902262,37.2697675 C71.1042664,39.6305576 72.1482609,43.12513 73.0542226,46.1412765 C77.8219919,62.0114512 79.5374868,83.7857831 76.4412752,100.369233 C64.6983784,101.431608 51.1066198,98.3309639 39.3897743,96.6552829 C38.2501289,96.4918405 36.9600083,96.2248582 36.3686059,95.191839 C36.0101094,94.5662355 36,93.7954381 36,93.0655014 C36.0011665,82.5381466 38.125705,71.2233329 40.1184319,60.8451391 C40.9594599,56.4659151 41.9952891,52.1235845 43.3239033,47.8772566 C44.7302825,43.3821947 46.3159099,38.528115 49.6069227,35.1275617 C53.1288975,31.4889854 59.8715077,29.6923095 64.2800029,32.5327157 C64.5315726,32.6945712 64.7726439,32.872295 65.0051611,33.0607297" id="Fill-12" fill="#2EB9AE"></path>
                    <path d="M63.7163191,34.9040639 C63.9220734,33.5263544 64.1282054,32.1478812 64.3343373,30.7697899 C64.6110675,30.6327063 64.8745841,30.4803487 65.1180916,30.3188268 C69.873472,27.167049 77.8499469,10.2431404 65.1743438,6.45482115 C53.6649338,3.01551146 54.2633205,19.4514177 56.5096299,26.3048351 C56.8939564,27.4774919 57.4077761,28.5856163 58.1685011,29.5463472 C58.6891163,30.2038904 58.8057734,30.0790259 58.7310223,30.8408137 C58.6589138,31.5773995 57.9514208,32.4117386 57.7905926,33.189564 C57.6191935,34.0185572 57.6837513,34.9372847 58.1473593,35.6353038 C58.4316402,36.0629742 58.8465467,36.3814359 59.2890131,36.6246734 C59.9919758,37.0114859 60.8089529,37.2245574 61.590442,37.0706725 C62.5199233,36.8881489 63.5683269,35.8911424 63.7163191,34.9040639" id="Fill-13" fill="#E8B98A"></path>
                    <path d="M53.448366,20.9400654 C54.1116332,23.2713377 55.040776,25.4975684 56.2023823,27.5414013 C56.1398233,23.2281811 56.5844896,18.9055967 57.5193196,14.7344676 C57.5907648,14.4164928 57.6604327,14.0557685 57.5136324,13.7756576 C57.3764292,13.514275 57.0977575,13.4161547 56.8421899,13.3514197 C52.2785844,12.1918907 52.291736,16.8764207 53.448366,20.9400654" id="Fill-14" fill="#191718"></path>
                    <path d="M67.2,26.7336396 C67.9895416,27.9353337 69.7176455,27.6123759 70.9347118,26.9498879 C75.9332266,24.2287965 78.8757152,17.6774817 77.7670624,11.738938 C76.8388435,6.76967201 71.0550011,3.04332881 69.8850544,9.19973767 C69.4705546,11.3824314 70.6979643,14.4074832 70.4167787,16.8294648 C70.0153039,20.2898427 68.5258629,23.5998573 67.2,26.7336396" id="Fill-15" fill="#191718"></path>
                    <path d="M55.0777934,2.62988884 C54.5044156,2.87235216 53.920841,3.1278995 53.3062836,3.38549123 C52.0336359,3.91784746 51.1119958,4.09775279 49.7997373,3.29962732 C49.4244141,3.07147465 46.9104937,0.528267472 47.5152465,0 C43.5047395,3.50079419 46.8034266,8.61133222 48.3074647,12.2290649 C49.3212688,14.667191 49.5299124,18.1095159 51.8085204,19.7029047 C54.3149892,21.4553462 56.0343381,19.2392396 58.3102008,18.2460804 C60.3178074,17.3702686 62.4877795,16.8959727 64.5302908,16.1162466 C67.9195731,14.8225638 72.962709,12.5496235 71.8402691,7.7314316 C70.5291871,2.10366574 65.200931,0.701221915 60.4142855,1.13095033 C58.3690289,1.31494442 56.7677283,1.91476515 55.0777934,2.62988884" id="Fill-16" fill="#191718"></path>
                    <path d="M73.2,178.420382 C72.6216844,178.420382 72.0343327,178.352214 71.4506775,178.208813 L52.8,173.630573 L71.4506775,178.208813 C72.0343327,178.352214 72.6220952,178.420382 73.2,178.420382" id="Fill-30" fill="#4F586B"></path>
                    <polyline id="Fill-36" fill="#DEDEDE" points="72 186.802548 72 186.802548 73.2 179.617834 72 186.802548"></polyline>
                </g>
                <path d="M188,144 L171.881881,140.273511 C171.573377,140.202282 171.278615,140.110184 171,140 C171.278615,140.110184 171.573377,140.202282 171.881881,140.273511 L188,144" id="Fill-34" fill="#474F60"></path>
                <path d="M188,144 L171.881881,140.274807 C171.573377,140.203602 171.278615,140.111536 171,140.001391 L171.000344,140 L188,144" id="Fill-35" fill="#474F60"></path>
                <path d="M171,140 C168.753229,138.928752 167.526083,136.435022 168.171476,134 C167.526083,136.434685 168.753575,138.928752 171,140" id="Fill-29" fill="#D9E9F5"></path>
                <path d="M171.000073,140 L171.000073,140 C171.000073,140 170.999743,140 171.000073,140" id="Fill-31" fill="#4F586B"></path>
                <g id="Cash" transform="translate(216.498853, 72.291870) scale(-1, 1) rotate(20.000000) translate(-216.498853, -72.291870) translate(173.998853, 26.791870)">
                    <polyline id="Fill-3" fill="#FFFFFF" points="84.8606499 33.4097436 27.0351677 88.5833846 -8.52651283e-14 59.8368974 57.8256604 4.6634359 84.8606499 33.4097436"></polyline>
                    <path d="M27.1044864,85.7279231 L81.6762683,33.6590513 L57.6512055,7.763 L3.02507338,59.7993846 L27.1044864,85.7279231 Z M82.4581971,33.6831026 L27.080608,86.5207179 L2.24261006,59.7751538 L2.44308176,59.5841795 L57.6754403,6.97038462 L82.4581971,33.6831026 L82.4581971,33.6831026 Z" id="Fill-4" fill="#2EB9AE"></path>
                    <path d="M49.9318868,14.658359 C49.9318868,14.658359 57.3176205,10.1141026 64.7773061,17.4361026 L77.1751887,30.9236667 C77.1751887,30.9236667 79.3700419,33.2575385 77.6098113,36.6699487 L75.6690671,39.4841282 L82.0672327,33.6708974 L57.6633229,7.36669231 L49.9318868,14.658359" id="Fill-5" fill="#2EB9AE"></path>
                    <path d="M10.2363522,52.6618974 C10.2363522,52.6618974 5.33165618,59.8442564 12.1867191,67.7429487 L24.8868239,80.9422564 C24.8868239,80.9422564 27.0816771,83.2761282 30.5599057,81.6901795 L33.4548952,79.890641 L27.3457652,86.0113333 L2.58920335,60.0433077 L10.2363522,52.6618974" id="Fill-6" fill="#2EB9AE"></path>
                    <path d="M28.0678197,58.8150769 C29.5963941,60.4403333 29.6097589,62.9271282 28.0977568,64.3696667 C26.5859329,65.8122051 24.1211111,65.6643077 22.5927149,64.0392308 C21.0643187,62.4139744 21.0509539,59.927 22.5627778,58.4844615 C24.0747799,57.0419231 26.5394235,57.1898205 28.0678197,58.8150769" id="Fill-7" fill="#5A7E6F"></path>
                    <polyline id="Fill-8" fill="#5A7E6F" points="28.8568763 72.8868718 28.0683543 73.6389231 25.9212579 71.3558462 26.7096017 70.6036154 28.8568763 72.8868718"></polyline>
                    <polyline id="Fill-9" fill="#5A7E6F" points="30.1381132 71.6643846 29.3495912 72.4164359 27.2023166 70.1335385 27.9908386 69.3811282 30.1381132 71.6643846"></polyline>
                    <polyline id="Fill-10" fill="#5A7E6F" points="31.4191719 70.4418974 30.6308281 71.1941282 28.4835535 68.9110513 29.2720755 68.1588205 31.4191719 70.4418974"></polyline>
                    <polyline id="Fill-11" fill="#5A7E6F" points="32.7004088 69.2195897 31.9118868 69.971641 29.7647904 67.6887436 30.5531342 66.9363333 32.7004088 69.2195897"></polyline>
                    <polyline id="Fill-12" fill="#5A7E6F" points="33.9814675 67.9971026 33.1931237 68.7493333 31.0458491 66.4662564 31.8343711 65.7140256 33.9814675 67.9971026"></polyline>
                    <polyline id="Fill-13" fill="#5A7E6F" points="35.2627044 66.7747949 34.4743606 67.5268462 32.327086 65.2437692 33.115608 64.4915385 35.2627044 66.7747949"></polyline>
                    <polyline id="Fill-14" fill="#5A7E6F" points="36.5437631 65.5523077 35.7554193 66.3045385 33.6083229 64.0214615 34.3966667 63.2692308 36.5437631 65.5523077"></polyline>
                    <polyline id="Fill-15" fill="#5A7E6F" points="37.825 64.33 37.0366562 65.0820513 34.8893816 62.7989744 35.6779036 62.0467436 37.825 64.33"></polyline>
                    <polyline id="Fill-16" fill="#5A7E6F" points="51.2612369 28.7920769 50.4728931 29.5443077 49.8018029 28.8306667 50.5903249 28.0786154 51.2612369 28.7920769"></polyline>
                    <polyline id="Fill-17" fill="#5A7E6F" points="52.5424738 27.5695897 51.7539518 28.3218205 51.0830398 27.608359 51.8713836 26.8561282 52.5424738 27.5695897"></polyline>
                    <polyline id="Fill-18" fill="#5A7E6F" points="53.8235325 26.3472821 53.0351887 27.0993333 52.3642767 26.3858718 53.1526205 25.633641 53.8235325 26.3472821"></polyline>
                    <polyline id="Fill-19" fill="#5A7E6F" points="55.1047694 25.1247949 54.3164256 25.8770256 53.6453354 25.1635641 54.4336792 24.4113333 55.1047694 25.1247949"></polyline>
                    <polyline id="Fill-20" fill="#5A7E6F" points="56.3858281 23.9023077 55.5974843 24.6545385 54.9265723 23.9410769 55.7149161 23.1888462 56.3858281 23.9023077"></polyline>
                    <polyline id="Fill-21" fill="#5A7E6F" points="57.667065 22.68 56.8787212 23.4322308 56.207631 22.7187692 56.996153 21.9665385 57.667065 22.68"></polyline>
                    <polyline id="Fill-22" fill="#5A7E6F" points="58.9483019 21.4575128 58.1599581 22.2097436 57.4888679 21.4962821 58.2772117 20.7440513 58.9483019 21.4575128"></polyline>
                    <polyline id="Fill-23" fill="#5A7E6F" points="60.2293606 20.2350256 59.4410168 20.9874359 58.7699266 20.2739744 59.5584486 19.5217436 60.2293606 20.2350256"></polyline>
                    <polyline id="Fill-24" fill="#5A7E6F" points="63.7842138 50.7275641 45.4491614 68.221641 44.113218 66.801 62.4482704 49.3071026 63.7842138 50.7275641"></polyline>
                    <path d="M30.6110482,34.0558974 C26.0745073,38.3842308 27.7064361,47.565359 34.2489413,54.5219231 C40.7914465,61.4784872 49.8048323,63.6167179 54.3413732,59.2882051 C58.877914,54.9598718 57.2458071,45.7787436 50.7033019,38.8221795 C44.1607966,31.8656154 35.1475891,29.7273846 30.6110482,34.0558974 Z M54.9139203,59.8970256 C52.5312474,62.1704103 48.9904717,62.9073846 44.9441509,61.9715385 C40.95913,61.0500513 36.9459539,58.6092051 33.6444969,55.0986154 C30.3428616,51.5880256 28.1403459,47.4199744 27.442348,43.3619487 C26.7336583,39.2418205 27.6556499,35.7204615 30.038501,33.4470769 C32.421174,31.1735128 35.9617715,30.4368974 40.0080922,31.3725641 C43.9932914,32.2940513 48.0062893,34.7348974 51.3077463,38.2454872 C54.6093816,41.7560769 56.8118973,45.9241282 57.5098952,49.9821538 C58.2185849,54.1024615 57.2967715,57.6234615 54.9139203,59.8970256 L54.9139203,59.8970256 Z" id="Fill-25" fill="#5A7E6F"></path>
                    <path d="M51.0037421,38.5996154 C57.715,45.7354872 59.3365933,55.1639487 54.6259539,59.6584872 C49.9151363,64.1530256 40.6560168,62.0121026 33.9449371,54.8762308 C27.2338574,47.740359 25.6122642,38.3118974 30.3229036,33.817359 C35.033543,29.322641 44.2928407,31.4637436 51.0037421,38.5996154" id="Fill-26" fill="#AEBA8F"></path>
                    <polyline id="Fill-27" fill="#FFFFFF" points="82.4314675 27.3199231 33.8025577 90.8601795 2.66778826 66.6859487 51.2966981 3.14551282 82.4314675 27.3199231"></polyline>
                    <path d="M33.4315514,88.0287692 L79.3240671,28.0637179 L51.6015933,6.23484615 L5.65045073,66.1762051 L33.4315514,88.0287692 Z M80.1002935,27.9651795 L33.5300943,88.815641 L4.87368973,66.2745641 L51.5037631,5.44797436 L80.1002935,27.9651795 L80.1002935,27.9651795 Z" id="Fill-28" fill="#2EB9AE"></path>
                    <path d="M45.0377044,14.2528974 C45.0377044,14.2528974 51.6343816,8.60964103 60.131174,14.6773846 L74.4562579,26.0647692 C74.4562579,26.0647692 76.9839832,28.0272821 75.770283,31.6735641 L74.2866143,34.7569744 L79.7121803,28.014359 L51.5525891,5.84141026 L45.0377044,14.2528974" id="Fill-29" fill="#2EB9AE"></path>
                    <path d="M11.6751153,57.9982308 C11.6751153,57.9982308 7.93600629,65.8601282 15.9244025,72.5923333 L30.5035954,83.6474872 C30.5035954,83.6474872 33.0313208,85.61 36.2233648,83.4999487 L38.8059748,81.27 L33.7134591,88.2707179 L5.25752621,66.4851026 L11.6751153,57.9982308" id="Fill-30" fill="#5A7E6F"></path>
                    <path d="M30.2386164,61.2911026 C31.998847,62.6577179 32.394979,65.1125641 31.123543,66.7738974 C29.8521069,68.4352308 27.3945912,68.6741282 25.6343606,67.3073333 C23.87413,65.9405385 23.4778197,63.4860513 24.7492558,61.8247179 C26.0206918,60.1632051 28.4783857,59.9244872 30.2386164,61.2911026" id="Fill-31" fill="#5A7E6F"></path>
                    <polyline id="Fill-32" fill="#5A7E6F" points="33.1851048 75.0692564 32.5220335 75.9354615 30.0493711 74.0154872 30.7122642 73.1491026 33.1851048 75.0692564"></polyline>
                    <polyline id="Fill-33" fill="#5A7E6F" points="34.2624843 73.661359 33.599413 74.5275641 31.1265723 72.6077692 31.7896436 71.7413846 34.2624843 73.661359"></polyline>
                    <polyline id="Fill-34" fill="#5A7E6F" points="35.3398637 72.2534615 34.6767925 73.1198462 32.20413 71.1998718 32.8672013 70.3336667 35.3398637 72.2534615"></polyline>
                    <polyline id="Fill-35" fill="#5A7E6F" points="36.4172432 70.8457436 35.7543501 71.7121282 33.2815094 69.7919744 33.9444025 68.9257692 36.4172432 70.8457436"></polyline>
                    <polyline id="Fill-36" fill="#5A7E6F" points="37.4946226 69.4380256 36.8317296 70.3044103 34.3588889 68.3844359 35.0219602 67.5178718 37.4946226 69.4380256"></polyline>
                    <polyline id="Fill-37" fill="#5A7E6F" points="38.5721803 68.0301282 37.909109 68.8965128 35.4362683 66.9765385 36.0993396 66.1103333 38.5721803 68.0301282"></polyline>
                    <polyline id="Fill-38" fill="#5A7E6F" points="39.6495597 66.6224103 38.9864885 67.4886154 36.5136478 65.5688205 37.1767191 64.7024359 39.6495597 66.6224103"></polyline>
                    <polyline id="Fill-39" fill="#5A7E6F" points="40.7269392 65.2145128 40.0638679 66.0810769 37.5910273 64.1609231 38.2540985 63.2945385 40.7269392 65.2145128"></polyline>
                    <polyline id="Fill-40" fill="#5A7E6F" points="48.5275157 28.0075385 47.8646226 28.8739231 47.091782 28.2738974 47.7548532 27.4076923 48.5275157 28.0075385"></polyline>
                    <polyline id="Fill-41" fill="#5A7E6F" points="49.6050734 26.5998205 48.9420021 27.4662051 48.1693396 26.8661795 48.8322327 25.9997949 49.6050734 26.5998205"></polyline>
                    <polyline id="Fill-42" fill="#5A7E6F" points="50.6824528 25.1921026 50.0193816 26.0584872 49.2467191 25.4584615 49.9096122 24.5920769 50.6824528 25.1921026"></polyline>
                    <polyline id="Fill-43" fill="#5A7E6F" points="51.7598323 23.7842051 51.096761 24.6505897 50.3240985 24.0505641 50.9871698 23.1841795 51.7598323 23.7842051"></polyline>
                    <polyline id="Fill-44" fill="#5A7E6F" points="52.8372117 22.3764872 52.1741405 23.2428718 51.401478 22.6428462 52.0645493 21.7764615 52.8372117 22.3764872"></polyline>
                    <polyline id="Fill-45" fill="#5A7E6F" points="53.9145912 20.9687692 53.2516981 21.8349744 52.4788574 21.2351282 53.1419287 20.3687436 53.9145912 20.9687692"></polyline>
                    <polyline id="Fill-46" fill="#5A7E6F" points="54.9919706 19.5608718 54.3290776 20.4272564 53.5562369 19.8272308 54.2193082 18.9610256 54.9919706 19.5608718"></polyline>
                    <polyline id="Fill-47" fill="#5A7E6F" points="56.0695283 18.1531538 55.406457 19.0195385 54.6336164 18.4195128 55.2966876 17.5531282 56.0695283 18.1531538"></polyline>
                    <polyline id="Fill-48" fill="#2EB9AE" points="64.2771069 47.7211538 48.8582495 67.8682308 47.319696 66.6733846 62.7385535 46.5264872 64.2771069 47.7211538"></polyline>
                    <path d="M28.937956,36.4341026 C25.122935,41.419 28.1490776,50.2339744 35.6836059,56.0841795 C43.2181342,61.9343846 52.4519497,62.6383333 56.2669706,57.6534359 C60.0819916,52.6687179 57.0556709,43.8537436 49.5211426,38.0035385 C41.9864361,32.1533333 32.7529769,31.4492051 28.937956,36.4341026 Z M56.9262998,58.1655128 C54.922652,60.7838718 51.5381551,62.0648718 47.3966771,61.7726667 C43.3179245,61.4847692 38.9775786,59.7006667 35.1753878,56.7482821 C31.3730189,53.7960769 28.5553669,50.0225385 27.2408071,46.1228205 C25.9062893,42.1631538 26.2746226,38.5403846 28.2786268,35.9222051 C30.2824528,33.3038462 33.6665933,32.0230256 37.8080713,32.3150513 C41.8870021,32.6029487 46.2271698,34.3870513 50.0293606,37.3394359 C53.8317296,40.291641 56.6495597,44.0651795 57.9639413,47.9648974 C59.2986373,51.9245641 58.9301258,55.5473333 56.9262998,58.1655128 L56.9262998,58.1655128 Z" id="Fill-49" fill="#2EB9AE"></path>
                    <path d="M49.7836268,37.7368205 C57.5123899,43.7377949 60.5663312,52.7986667 56.6050105,57.9748974 C52.6435115,63.1511282 43.1666352,62.4825385 35.4378721,56.4815641 C27.709109,50.4807692 24.6551677,41.4197179 28.6166667,36.2434872 C32.5779874,31.0672564 42.0548637,31.7358462 49.7836268,37.7368205" id="Fill-50" fill="#54DFD4"></path>
                    <polyline id="Fill-51" fill="#FFFFFF" points="77.0390461 21.1294103 34.5354822 88.9802308 1.28872117 67.8508205 43.7922851 2.84217094e-14 77.0390461 21.1294103"></polyline>
                    <path d="M33.9027044,86.1960256 L74.0145073,22.1632564 L44.3833648,3.04697436 L4.21079665,67.0616154 L33.9027044,86.1960256 Z M74.7780818,21.9920256 L34.07413,86.9699744 L3.44668763,67.2330256 L44.212652,2.27302564 L74.7780818,21.9920256 L74.7780818,21.9920256 Z" id="Fill-52" fill="#2EB9AE"></path>
                    <path d="M38.5942767,11.6492564 C38.5942767,11.6492564 44.636761,5.40812821 53.6608386,10.647359 L68.9822222,20.6325897 C68.9822222,20.6325897 71.681195,22.3479487 70.8123061,26.0925897 L69.6219497,29.302359 L74.3962055,22.0774615 L44.2980084,2.65982051 L38.5942767,11.6492564" id="Fill-53" fill="#2EB9AE"></path>
                    <path d="M9.44818658,58.3512821 C9.44818658,58.3512821 6.45697065,66.5314103 15.0366247,72.4797949 L30.5802201,82.110359 C30.5802201,82.110359 33.2793711,83.8257179 36.2607862,81.423641 L38.6247484,78.9594615 L34.2058176,86.4103333 L3.84834382,67.4064103 L9.44818658,58.3512821" id="Fill-54" fill="#2EB9AE"></path>
                    <path d="M28.2362159,59.8774615 C30.1160168,61.0719487 30.7388155,63.4785128 29.6274004,65.2523846 C28.5161635,67.0264359 26.0916143,67.4961538 24.2119916,66.3016667 C22.332369,65.1071795 21.709392,62.7007949 22.8208071,60.9267436 C23.932044,59.1526923 26.3565933,58.6829744 28.2362159,59.8774615" id="Fill-55" fill="#2EB9AE"></path>
                    <polyline id="Fill-56" fill="#2EB9AE" points="32.4516457 73.3167436 31.8721488 74.241641 29.2316247 72.5636154 29.8111216 71.6385385 32.4516457 73.3167436"></polyline>
                    <polyline id="Fill-57" fill="#2EB9AE" points="33.3934172 71.813359 32.8137421 72.7384359 30.173218 71.0604103 30.7527149 70.1351538 33.3934172 71.813359"></polyline>
                    <polyline id="Fill-58" fill="#2EB9AE" points="34.3350105 70.3101538 33.7555136 71.2352308 31.1149895 69.5572051 31.6944864 68.6319487 34.3350105 70.3101538"></polyline>
                    <polyline id="Fill-59" fill="#2EB9AE" points="35.276782 68.8067692 34.6972851 69.7318462 32.056761 68.0538205 32.6362579 67.1285641 35.276782 68.8067692"></polyline>
                    <polyline id="Fill-60" fill="#2EB9AE" points="36.2183753 67.3035641 35.6388784 68.228641 32.9983543 66.5506154 33.5778512 65.625359 36.2183753 67.3035641"></polyline>
                    <polyline id="Fill-61" fill="#2EB9AE" points="37.1601468 65.8001795 36.5806499 66.7252564 33.9401258 65.0472308 34.5196226 64.1219744 37.1601468 65.8001795"></polyline>
                    <polyline id="Fill-62" fill="#2EB9AE" points="38.1019182 64.2969744 37.5222432 65.2220513 34.8817191 63.5440256 35.4612159 62.6187692 38.1019182 64.2969744"></polyline>
                    <polyline id="Fill-63" fill="#2EB9AE" points="39.0435115 62.7937692 38.4640147 63.7186667 35.8234906 62.040641 36.4029874 61.1155641 39.0435115 62.7937692"></polyline>
                    <polyline id="Fill-64" fill="#2EB9AE" points="43.3483962 25.0142308 42.7688994 25.9393077 41.9436688 25.4148462 42.5231656 24.4897692 43.3483962 25.0142308"></polyline>
                    <polyline id="Fill-65" fill="#2EB9AE" points="44.2901677 23.5108462 43.7104927 24.4359231 42.8854403 23.911641 43.4649371 22.9863846 44.2901677 23.5108462"></polyline>
                    <polyline id="Fill-66" fill="#2EB9AE" points="45.231761 22.007641 44.6522642 22.9327179 43.8270335 22.4082564 44.4065304 21.4831795 45.231761 22.007641"></polyline>
                    <polyline id="Fill-67" fill="#2EB9AE" points="46.1733543 20.5042564 45.5938574 21.4295128 44.768805 20.9050513 45.3483019 19.9797949 46.1733543 20.5042564"></polyline>
                    <polyline id="Fill-68" fill="#2EB9AE" points="47.1151258 19.0010513 46.5356289 19.9261282 45.7103983 19.4016667 46.2898952 18.4765897 47.1151258 19.0010513"></polyline>
                    <polyline id="Fill-69" fill="#2EB9AE" points="48.0568973 17.4976667 47.4774004 18.4229231 46.6521698 17.8984615 47.2316667 16.9733846 48.0568973 17.4976667"></polyline>
                    <polyline id="Fill-70" fill="#2EB9AE" points="48.9984906 15.9944615 48.4189937 16.9195385 47.5939413 16.3950769 48.1734382 15.47 48.9984906 15.9944615"></polyline>
                    <polyline id="Fill-71" fill="#2EB9AE" points="49.9402621 14.4912564 49.3607652 15.4163333 48.5355346 14.8918718 49.1150314 13.9667949 49.9402621 14.4912564"></polyline>
                    <polyline id="Fill-72" fill="#2EB9AE" points="60.862673 43.1544615 47.3859853 64.6679744 45.7428302 63.6238974 59.2195178 42.1102051 60.862673 43.1544615"></polyline>
                    <path d="M24.6289727,35.2525385 C21.2943711,40.5755897 25.1272117,49.0660513 33.1729874,54.1792821 C41.2187631,59.2926923 50.4771698,59.1221795 53.8117715,53.7991282 C57.146195,48.4762564 53.3131761,39.9856154 45.2674004,34.8723846 C37.2218029,29.7589744 27.9633962,29.9294872 24.6289727,35.2525385 Z M54.5158281,54.2465897 C52.7645073,57.0424615 49.5141929,58.6373846 45.3636268,58.7371795 C41.2761426,58.8357179 36.7887841,57.4689231 32.7287421,54.8886154 C28.668522,52.3083077 25.5121174,48.8172821 23.8404507,45.0588205 C22.1434801,41.2423846 22.173239,37.6009487 23.9247379,34.8050769 C25.6762369,32.0092051 28.9263732,30.4144615 33.076761,30.3144872 C37.1644235,30.2159487 41.6514256,31.5827436 45.7116457,34.1630513 C49.7718658,36.743359 52.9284486,40.2345641 54.5999371,43.9930256 C56.297086,47.8092821 56.2671488,51.4507179 54.5158281,54.2465897 L54.5158281,54.2465897 Z" id="Fill-73" fill="#2EB9AE"></path>
                    <path d="M45.5040461,34.5819744 C53.757065,39.8271282 57.6406918,48.5597179 54.1781447,54.0872051 C50.7155975,59.6145128 41.2184067,59.843359 32.9652096,54.5982051 C24.7121908,49.3532308 20.8287421,40.6204615 24.2912893,35.0931538 C27.7536583,29.5658462 37.2510273,29.3368205 45.5040461,34.5819744" id="Fill-74" fill="#8CFFF6"></path>
                </g>
                <polyline id="Fill-27" fill="#E8B98A" points="249.969828 76.460161 246.075161 77.6413615 242.905333 76 242.201411 76.4676863 242.766466 77.3222311 239.728823 76.682298 237.484872 77.7910323 237 80.9795492 238.715501 83.8734627 242.066611 84 245.595227 82.2167718 251 80.8215169 249.969828 76.460161"></polyline>
                <path d="M247,76.994561 C253.244987,75.5675337 259.489974,74.1407986 265.734962,72.7137713 C267.416108,72.330055 269.159342,72.2476422 270.840488,71.8510671 C273.298472,71.2715473 273.97183,71.0693145 274.317058,68.7854279 C275.317947,62.1658098 274.046215,55.2980765 275.071999,48.7775291 C277.53838,48.5387658 279.91988,47.9688901 282.437551,48.0013291 C286.548786,48.0542253 286.192461,50.8100859 286.423713,53.880401 C286.697855,57.5217609 286.861321,61.1745182 286.887115,64.8258144 C286.908411,67.8514162 287.933295,80.9743393 283.371554,81.9343608 C280.102541,82.6325316 247.158367,84.3415743 247.172464,85 C247.166765,84.7349347 247,76.994561 247,76.994561" id="Fill-28" fill="#29ADA3"></path>
            </g>
        </g>
    </g>
</svg>